<?xml version="1.0" standalone="no"?>
<!DOCTYPE svg PUBLIC "-//W3C//DTD SVG 1.1//EN" "http://www.w3.org/Graphics/SVG/1.1/DTD/svg11.dtd" >
<svg xmlns="http://www.w3.org/2000/svg">
<metadata>Generated by IcoMoon</metadata>
<defs>
<font id="icomoon" horiz-adv-x="1024">
<font-face units-per-em="1024" ascent="960" descent="-64" />
<missing-glyph horiz-adv-x="1024" />
<glyph unicode="&#x20;" horiz-adv-x="512" d="" />
<glyph unicode="&#xe900;" glyph-name="batch-outline" d="M908.203 661.333v-548.565h-792.363v548.565h792.363zM938.667 691.797h-853.333v-609.536h853.333v609.536zM161.536 752.768h700.971v-30.464h-700.971zM222.464 813.696h579.029v-30.464h-579.029z" />
<glyph unicode="&#xe901;" glyph-name="batch" d="M85.333 691.797h853.333v-609.536h-853.333zM161.536 752.768h700.971v-30.464h-700.971zM222.464 813.696h579.029v-30.464h-579.029z" />
<glyph unicode="&#xe902;" glyph-name="bell-outline" d="M514.773 874.624c9.643-0.683 18.944-3.2 27.221-8.277 14.763-9.045 25.173-25.899 23.595-43.52l-0.043-0.811 10.155-1.749 9.899-2.048c19.029-4.565 37.504-10.965 54.613-20.651 9.088-5.163 17.707-11.136 25.728-17.877 5.035-4.309 9.813-8.875 14.336-13.696 30.976-33.237 47.445-77.269 56.704-121.088l4.139-22.528c1.707-10.88 3.072-21.76 4.139-32.683 1.493-15.061 2.432-30.123 2.944-45.227 0.555-17.536 0.427-35.115 0.64-52.651l0.555-21.76c1.579-40.576 4.651-81.28 13.355-121.003 8.021-36.651 21.291-72.32 43.947-102.485 22.571-30.037 52.821-52.949 81.493-76.672l7.808-6.571h-768l44.971 37.163c10.325 8.917 20.437 18.091 29.739 28.16 10.667 11.563 20.181 24.149 28.117 37.717 17.365 29.568 27.179 62.976 33.365 96.512 7.125 38.699 9.771 78.165 10.752 117.461l0.597 54.016 0.64 19.115c0.811 14.763 1.792 29.525 3.456 44.245 1.237 10.667 2.773 21.333 4.608 31.915 1.451 8.576 3.243 17.109 5.291 25.557 10.069 41.813 27.435 83.243 58.155 114.176 5.205 5.248 10.752 10.155 16.64 14.677 10.197 7.893 21.333 14.549 33.024 19.968 19.669 9.173 40.619 14.549 61.995 18.005l-0.256 3.541c0.085 4.949 0.725 9.984 2.347 14.677 4.309 12.501 13.397 22.656 25.216 28.544 7.083 3.584 14.72 5.291 22.571 5.845h5.547zM558.805 779.861c-24.576 5.461-72.192 4.267-89.216 0.725l-16.64-3.072c-16.512-3.627-32.683-8.875-47.445-17.237-6.315-3.584-12.331-7.68-17.963-12.245-27.904-22.869-43.776-56.747-53.376-90.837l-4.608-18.304-4.48-23.68c-1.621-10.027-2.859-20.096-3.883-30.165-1.365-14.123-2.261-28.288-2.731-42.496-0.597-17.28-0.427-34.56-0.64-51.84l-0.555-22.571c-1.579-40.491-4.651-81.067-12.629-120.875-6.4-31.787-16-63.104-31.104-91.904-9.003-17.109-19.925-32.853-32.341-47.616l-1.536-1.749h545.067l-5.248 6.187c-9.643 12.032-18.432 24.619-25.941 38.101-19.456 35.029-30.421 74.069-37.035 113.408-6.485 38.315-9.088 77.227-10.069 116.011l-0.469 44.8-0.427 18.517c-0.555 14.208-1.323 28.373-2.731 42.496-0.981 10.069-2.219 20.139-3.84 30.165l-4.437 23.68-4.565 18.304c-9.643 34.56-25.771 68.949-54.4 91.733-6.571 5.248-13.696 9.813-21.205 13.653-17.365 8.917-36.651 12.629-55.552 16.811zM512.427 21.333c59.563 0 108.459 44.203 114.901 95.573h-229.76c6.229-51.371 55.339-95.573 114.859-95.573z" />
<glyph unicode="&#xe903;" glyph-name="bell" d="M748.672 514.901c0 216.875-74.027 290.645-183.125 307.115l0.213 3.541c0 27.349-24.192 49.109-53.76 49.109s-52.907-21.76-52.907-49.109l0.256-3.541c-109.355-16.683-184.021-90.667-184.021-307.584 0-252.885-62.891-279.979-147.328-351.104h768c-84.011 71.339-147.328 98.688-147.328 351.573zM512.427 21.333c59.563 0 108.459 44.203 114.901 95.573h-229.76c6.229-51.371 55.339-95.573 114.859-95.573z" />
<glyph unicode="&#xe904;" glyph-name="body-outline" d="M512 844.203c33.621 0 60.928-27.349 60.928-60.928s-27.307-60.928-60.928-60.928c-33.621 0-60.928 27.349-60.928 60.928s27.307 60.928 60.928 60.928zM512 874.667c-50.475 0-91.435-40.917-91.435-91.392s40.96-91.392 91.435-91.392c50.475 0 91.435 40.917 91.435 91.392s-40.96 91.392-91.435 91.392zM831.957 661.291h-639.915c-25.216 0-45.696-20.48-45.696-45.696 0-25.259 20.48-45.696 45.696-45.696h191.317c10.581 0 25.131-8.192 32.768-28.032 8.875-22.955 4.523-63.488-1.024-97.963l-7.467-40.491-0.384-0.384-61.397-328.021c-4.352-24.875 12.373-48.555 37.248-52.949l8.021-0.683c21.632 0 39.851 15.573 43.733 37.76l39.040 228.437v-0.341s13.824 59.819 37.077 59.819h2.048c23.723 0 33.237-59.819 33.237-59.819v0.171l40.917-228.352c3.925-22.144 23.509-37.717 45.269-37.717l8.149 0.683c24.832 4.395 41.557 28.117 37.163 52.992l-61.611 328.021v0.085l-0.085 0.597-7.168 40.789c-5.547 34.475-9.899 74.411-1.024 97.365 7.637 19.84 23.168 28.032 32.768 28.032h191.317c25.216 0 45.696 20.437 45.696 45.696 0 25.216-20.48 45.696-45.696 45.696zM192.043 600.149c-8.405 0-15.232 6.955-15.232 15.317 0 8.405 6.827 15.36 15.232 15.36h639.915c8.405 0 15.232-6.827 15.232-15.232s-6.827-15.232-15.232-15.232h-193.323c-29.568 0-52.224-28.075-59.008-45.568-9.216-23.893-9.515-60.843-0.725-115.584v-0.384l6.4-36.48 1.067-6.144 61.44-326.869c0.939-5.376-1.195-9.429-2.56-11.392-1.323-1.92-4.437-5.333-9.856-6.272l-2.688-0.256c-7.424 0-13.739 5.035-15.019 12.331l-40.448 228.096h-0.043c-0.512 3.797-3.456 19.115-9.557 35.755-4.352 11.819-9.216 20.992-14.933 28.544-13.483 17.92-29.013 21.376-39.68 21.376h-2.048c-10.453 0-25.728-3.285-39.467-20.821-5.803-7.424-10.923-16.512-15.573-28.16-6.912-17.237-10.496-33.621-10.88-35.456l-0.213-0.725-39.467-228.352c-1.323-7.381-7.168-12.544-14.165-12.544l-2.688 0.256c-5.419 0.939-8.491 4.309-9.856 6.229-1.323 1.963-3.456 5.973-2.517 11.392l61.781 328.533 7.211 40.619 0.043 0.256v0.213c8.832 54.912 8.661 91.989-0.597 115.968-6.741 17.493-25.856 45.227-60.501 45.227z" />
<glyph unicode="&#xe905;" glyph-name="body" d="M831.787 661.163c25.216 0 45.653-20.437 45.653-45.653 0-25.259-20.437-45.696-45.653-45.696h-187.392c-10.624-1.92-25.131-7.296-32.768-27.136-8.875-22.955-4.523-63.872 1.024-98.389l7.168-40.747 0.128-0.597 0.043-0.043 57.856-327.936c4.352-24.832-12.16-48.555-36.992-52.949-24.832-4.352-48.384 12.203-52.736 37.035l-39.936 228.224v-0.128s-11.435 61.867-35.157 61.867h-2.048c-23.253 0-35.157-61.867-35.157-61.867v0.299l-39.936-228.309c-4.352-24.875-27.733-41.429-52.565-37.077-24.875 4.395-41.472 28.075-37.077 52.949l57.813 327.893 0.128 0.597 7.168 40.747c5.547 34.475 9.899 75.477 1.024 98.432-7.637 19.84-22.144 25.216-32.768 27.136h-187.392c-25.216 0-45.653 20.437-45.653 45.696 0 25.216 20.437 45.653 45.653 45.653h639.573zM512 874.667c50.432 0 91.349-40.917 91.349-91.349s-40.917-91.392-91.349-91.392-91.349 40.96-91.349 91.392 40.917 91.349 91.349 91.349z" />
<glyph unicode="&#xe906;" glyph-name="box-outline, archive-outline" d="M596.821 490.667c23.467 0 42.923-19.2 42.923-42.667s-18.688-42.667-42.411-42.667h-170.667c-23.467 0-42.667 19.2-42.667 42.667s19.2 42.667 42.667 42.667h168.021zM597.333 533.333h-170.667c-46.933 0-85.333-38.4-85.333-85.333s38.4-85.333 85.333-85.333h170.667c46.933 0 85.333 38.4 85.333 85.333s-38.4 85.333-85.333 85.333zM938.667 832h-853.333v-213.333h42.667v-554.667h768v554.667h42.667v213.333zM853.333 106.667h-682.667v512h682.667v-512zM896 661.333h-768v128h768v-128z" />
<glyph unicode="&#xe907;" glyph-name="box, archive" d="M128 64h768v512h-768v-512zM426.667 490.667h170.667c23.467 0 42.667-19.2 42.667-42.667s-19.2-42.667-42.667-42.667h-170.667c-23.467 0-42.667 19.2-42.667 42.667s19.2 42.667 42.667 42.667zM85.333 832v-213.333h853.333v213.333h-853.333z" />
<glyph unicode="&#xe908;" glyph-name="calendar-outline, appointment-outline" d="M704 768v64h-32v-64h-320v64h-32v-64h-192v-704h768v704h-192zM864 96h-704v480h704v-480zM864 608h-704v128h160v-64h32v64h320v-64h32v64h160v-128z" />
<glyph unicode="&#xe909;" glyph-name="calendar, appointment" d="M128 576h768v-512h-768zM896 768h-192v-96h-32v96h-320v-96h-32v96h-192v-160h768v160zM320 832h32v-64h-32zM672 832h32v-64h-32z" />
<glyph unicode="&#xe90a;" glyph-name="chat-bubble-outline" d="M517.717 808.149c27.008-0.384 53.888-2.56 80.512-6.955 18.816-3.072 37.461-7.211 55.808-12.416 13.013-3.669 25.856-7.893 38.528-12.629 82.517-30.976 158.507-85.845 204.288-162.304 6.656-11.179 12.672-22.784 17.877-34.731 9.259-21.12 16-43.307 19.883-66.005 4.736-27.349 5.333-55.424 1.877-82.944-4.096-32.427-14.037-64-29.056-93.056-17.963-34.773-42.837-65.664-71.936-91.691-67.84-60.8-156.501-95.232-246.016-107.264-28.715-3.84-57.643-5.248-86.571-4.907-16.341 0.171-32.683 0.811-48.939 2.091-24.405 1.92-48.725 5.291-72.576 10.88-8.277 1.963-16.555 4.181-24.704 6.699l-12.16 3.968-1.28 0.512-5.461 1.451c-9.515 1.963-19.2 2.475-28.843 1.109l-9.173-1.877-2.901-0.853-0.768-0.213-0.683-0.256 1.28 0.427h0.085l-19.584-7.509-4.011-1.621-112.469-48.896-3.584-1.323c-4.139-0.939-8.661-1.664-12.885-0.811-8.533 1.621-17.323 7.509-18.133 16.896l0.341 4.565 6.443 20.608c9.173 29.227 18.347 58.496 27.349 87.765l6.101 20.821 0.085 2.347c-0.341 5.589-1.493 10.923-3.84 16.043l-4.139 7.168 0.171-0.384 0.341-0.555 0.811-1.408 1.152-1.877-6.144 8.704-5.803 7.211-7.595 10.24c-6.016 8.661-11.776 17.451-17.024 26.581-12.416 21.675-22.272 44.8-28.928 68.864-7.851 28.501-11.179 58.197-9.813 87.765 1.195 24.619 5.632 49.024 13.141 72.448 6.613 20.651 15.531 40.533 26.411 59.264 46.379 79.829 125.525 136.619 211.285 167.765 14.379 5.248 28.971 9.771 43.776 13.611 16.853 4.395 33.92 7.936 51.115 10.581 24.96 3.84 50.091 5.717 75.349 6.101h11.008zM507.136 765.483c-23.211-0.341-46.336-2.091-69.291-5.589-77.824-11.989-154.027-43.563-213.376-96.085-33.792-29.867-61.867-66.688-78.805-108.629-8.747-21.632-14.421-44.459-16.597-67.669-2.987-31.36 0.384-63.147 9.771-93.184 7.211-23.083 17.835-45.056 31.104-65.28 5.035-7.68 10.368-15.232 16.256-22.272l5.504-6.741 3.541-4.992c9.003-14.507 14.635-31.403 13.867-48.64l-0.981-7.68-2.347-8.661c-5.973-20.096-12.245-40.107-18.475-60.075l-4.608-14.763 74.069 32.213 12.032 4.736 14.549 5.547 12.416 3.285c12.459 2.517 25.387 3.072 38.016 1.707 5.973-0.64 12.032-1.621 17.792-3.285l-4.139 0.427 3.413-0.427 3.413-0.768 15.061-4.992 13.013-3.712c36.139-9.259 73.344-12.928 110.592-13.867 15.488-0.384 30.976-0.384 46.464 0.341 24.491 1.152 48.896 4.053 73.003 8.704 49.92 9.685 98.603 27.136 142.208 53.461 32.853 19.84 62.848 44.8 86.827 74.88 18.944 23.808 33.963 50.731 43.307 79.744 7.893 24.448 11.605 50.091 11.221 75.776-0.256 20.907-3.328 41.771-9.088 61.867-3.029 10.624-6.784 21.035-11.221 31.189-29.141 66.688-85.461 118.485-149.035 152.107-10.496 5.547-21.248 10.667-32.171 15.317-14.080 5.931-28.459 11.179-43.051 15.616-18.133 5.547-36.651 9.941-55.339 13.227-24.363 4.267-48.981 6.485-73.685 7.083l-15.232 0.085z" />
<glyph unicode="&#xe90b;" glyph-name="chat-bubble" d="M517.717 808.149c27.008-0.384 53.888-2.56 80.512-6.955 18.816-3.072 37.461-7.211 55.808-12.416 13.013-3.669 25.856-7.893 38.528-12.629 82.517-30.976 158.507-85.845 204.288-162.304 6.656-11.179 12.672-22.784 17.877-34.731 9.259-21.12 16-43.307 19.883-66.005 4.736-27.349 5.333-55.424 1.877-82.944-4.096-32.427-14.037-64-29.056-93.056-17.963-34.773-42.837-65.664-71.936-91.691-67.84-60.8-156.501-95.232-246.016-107.264-28.715-3.84-57.643-5.248-86.571-4.907-16.341 0.171-32.683 0.811-48.939 2.091-24.405 1.92-48.725 5.291-72.576 10.88-8.277 1.963-16.555 4.181-24.704 6.699l-12.16 3.968-1.28 0.512-5.461 1.451c-9.515 1.963-19.2 2.475-28.843 1.109l-9.173-1.877-2.901-0.853-0.768-0.213-0.683-0.256 1.28 0.427h0.085l-19.584-7.509-4.011-1.621-112.469-48.896-3.584-1.323c-4.139-0.939-8.661-1.664-12.885-0.811-8.533 1.621-17.323 7.509-18.133 16.896l0.341 4.565 6.443 20.608c9.173 29.227 18.347 58.496 27.349 87.765l6.101 20.821 0.085 2.347c-0.341 5.589-1.493 10.923-3.84 16.043l-4.139 7.168 0.171-0.384 0.341-0.555 0.811-1.408 1.152-1.877-6.144 8.704-5.803 7.211-7.595 10.24c-6.016 8.661-11.776 17.451-17.024 26.581-12.416 21.675-22.272 44.8-28.928 68.864-7.851 28.501-11.179 58.197-9.813 87.765 1.195 24.619 5.632 49.024 13.141 72.448 6.613 20.651 15.531 40.533 26.411 59.264 46.379 79.829 125.525 136.619 211.285 167.765 14.379 5.248 28.971 9.771 43.776 13.611 16.853 4.395 33.92 7.936 51.115 10.581 24.96 3.84 50.091 5.717 75.349 6.101h11.008z" />
<glyph unicode="&#xe90c;" glyph-name="check-empty" d="M446.165 296.832c-4.949-4.949-11.904-9.045-18.048-9.045-6.187 0-13.141 4.309-18.261 9.259l-114.901 114.859 36.523 36.523 96.811-96.853 256 257.877 35.925-37.163-274.048-275.456z" />
<glyph unicode="&#xe90d;" glyph-name="check-outline" d="M517.504 874.624c19.925-0.384 39.765-1.877 59.477-4.864 39.851-6.101 78.805-17.877 115.328-34.944 84.011-39.211 154.069-105.984 197.291-187.989 19.541-37.035 33.579-76.928 41.429-118.059 8.832-46.165 10.027-93.867 3.499-140.459-6.059-43.392-18.901-85.803-37.931-125.312-22.315-46.293-53.035-88.405-90.197-123.861-38.528-36.736-83.84-66.176-133.12-86.272-51.072-20.864-106.112-31.531-161.28-31.531s-110.208 10.667-161.28 31.531c-49.28 20.096-94.592 49.536-133.12 86.272-37.163 35.456-67.883 77.568-90.197 123.861-19.029 39.509-31.872 81.92-37.931 125.312-6.528 46.592-5.333 94.293 3.499 140.459 7.851 41.131 21.888 81.024 41.429 118.059 43.221 82.005 113.28 148.779 197.291 187.989 36.523 17.067 75.477 28.843 115.328 34.944 19.712 2.987 39.552 4.48 59.477 4.864h11.008zM507.008 831.957c-17.92-0.341-35.797-1.664-53.547-4.395-35.84-5.461-70.869-16.085-103.723-31.403-74.197-34.645-136.363-93.184-175.445-165.12-17.92-33.067-30.976-68.736-38.485-105.6-8.832-43.051-10.155-87.68-4.096-131.2 5.461-39.040 17.024-77.184 34.133-112.725 20.053-41.643 47.744-79.573 81.195-111.488 34.645-33.067 75.477-59.563 119.808-77.653 45.952-18.816 95.488-28.373 145.152-28.373s99.2 9.557 145.152 28.373c44.331 18.091 85.163 44.587 119.808 77.653 33.451 31.915 61.141 69.845 81.195 111.488 17.109 35.541 28.672 73.685 34.133 112.725 6.059 43.52 4.736 88.149-4.096 131.2-7.509 36.864-20.565 72.533-38.485 105.6-39.083 71.936-101.248 130.475-175.445 165.12-32.853 15.317-67.883 25.941-103.723 31.403-17.749 2.731-35.627 4.053-53.547 4.395h-9.984zM446.165 296.832c-4.949-4.949-11.904-9.045-18.048-9.045-6.187 0-13.141 4.309-18.261 9.259l-114.901 114.859 36.523 36.523 96.811-96.853 256 257.877 35.925-37.163-274.048-275.456z" />
<glyph unicode="&#xe90e;" glyph-name="check" d="M512 864c-229.8 0-416-186.2-416-416s186.2-416 416-416 416 186.2 416 416-186.2 416-416 416zM447.8 300.6c-4.8-4.8-11.6-8.8-17.6-8.8s-12.8 4.2-17.8 9l-112 112 35.6 35.6 94.4-94.4 249.6 251.4 35-36.2-267.2-268.6z" />
<glyph unicode="&#xe90f;" glyph-name="clock-outline" d="M517.504 874.624c19.925-0.384 39.765-1.877 59.435-4.864 39.851-6.101 78.763-17.92 115.285-34.987 85.589-39.979 156.672-108.544 199.723-192.597 18.304-35.712 31.531-74.027 39.083-113.451 8.832-46.165 10.027-93.824 3.499-140.373-6.101-43.392-18.944-85.803-37.973-125.269-22.315-46.293-53.035-88.405-90.24-123.861-38.528-36.736-83.84-66.176-133.12-86.315-51.029-20.907-106.027-31.573-161.195-31.573s-110.165 10.667-161.195 31.573c-49.28 20.139-94.592 49.579-133.12 86.315-37.205 35.456-67.925 77.568-90.24 123.861-19.029 39.467-31.872 81.877-37.973 125.269-6.528 46.549-5.333 94.208 3.499 140.373 7.552 39.424 20.779 77.739 39.083 113.451 43.051 84.053 114.133 152.619 199.723 192.597 36.523 17.067 75.435 28.885 115.285 34.987 19.669 2.987 39.509 4.48 59.435 4.864h11.008zM507.051 831.957c-17.963-0.341-35.797-1.664-53.547-4.395-35.84-5.461-70.827-16.085-103.68-31.445-77.013-35.968-141.013-97.749-179.797-173.397-16.469-32.128-28.331-66.56-35.157-102.016-7.979-41.6-9.003-84.48-3.157-126.421 5.504-39.040 17.024-77.141 34.176-112.64 20.053-41.685 47.744-79.616 81.237-111.573 34.688-33.024 75.477-59.563 119.808-77.696 45.952-18.773 95.445-28.373 145.067-28.373s99.115 9.6 145.067 28.373c44.331 18.133 85.12 44.672 119.808 77.696 33.493 31.957 61.184 69.888 81.237 111.573 17.152 35.499 28.672 73.6 34.176 112.64 5.845 41.941 4.821 84.821-3.157 126.421-6.827 35.456-18.688 69.888-35.157 102.016-38.784 75.648-102.784 137.429-179.797 173.397-32.853 15.36-67.84 25.984-103.68 31.445-17.749 2.731-35.584 4.053-53.547 4.395h-9.899zM554.667 426.667v-42.667h-256v42.667h213.333v277.333h42.667v-277.333z" />
<glyph unicode="&#xe910;" glyph-name="clock" d="M512 874.667c235.477 0 426.667-191.189 426.667-426.667s-191.189-426.667-426.667-426.667-426.667 191.189-426.667 426.667 191.189 426.667 426.667 426.667zM554.667 704h-42.667v-277.333h-213.333v-42.667h256v320z" />
<glyph unicode="&#xe911;" glyph-name="close-empty" d="M708.907 275.328l-24.235-24.235-173.099 172.715-172.245-171.861-24.235 24.192 172.288 171.861-172.288 171.861 24.235 24.192 172.245-171.861 173.099 172.715 24.235-24.235-173.099-172.672 173.099-172.672z" />
<glyph unicode="&#xe912;" glyph-name="close-outline" d="M517.205 874.539c18.773-0.299 37.504-1.664 56.107-4.352 40.917-5.888 80.896-17.749 118.4-35.115 50.261-23.339 95.744-56.619 133.419-97.28 30.208-32.555 55.253-69.803 73.984-110.123 19.541-42.155 32.085-87.467 37.077-133.675 5.12-47.573 2.261-95.957-8.533-142.592-8.96-38.784-23.381-76.288-42.795-111.061-23.68-42.453-54.699-80.683-91.179-112.768-37.163-32.683-79.957-58.837-126.037-76.843-49.493-19.371-102.571-29.312-155.733-29.312-53.12 0-106.197 9.941-155.691 29.312-46.080 18.005-88.832 44.16-125.952 76.843-35.115 30.933-65.195 67.627-88.491 108.245-20.693 36.053-36.053 75.179-45.397 115.669-10.795 46.635-13.696 95.019-8.576 142.592 4.949 46.165 17.493 91.477 37.035 133.632 18.731 40.277 43.819 77.525 74.027 110.080 37.717 40.661 83.2 73.941 133.547 97.28 37.504 17.365 77.525 29.227 118.4 35.115 18.603 2.688 37.333 4.053 56.149 4.352h10.24zM507.477 831.915c-16.939-0.341-33.792-1.536-50.56-3.968-36.821-5.291-72.832-15.957-106.581-31.573-45.269-21.035-86.229-50.987-120.192-87.595-32.512-35.029-58.368-76.032-75.776-120.533-30.421-77.739-34.517-164.779-11.819-245.077 10.24-36.139 25.813-70.784 46.123-102.4 22.869-35.584 51.669-67.371 84.779-93.696 30.933-24.619 65.707-44.331 102.656-58.283 43.307-16.341 89.557-24.704 135.808-24.704 47.872 0 95.659 8.96 140.203 26.368 41.472 16.213 79.957 39.723 113.408 69.12 32.811 28.928 60.757 63.317 82.091 101.547 17.451 31.275 30.421 65.024 38.485 99.883 19.157 82.944 10.112 171.477-25.728 248.704-16.811 36.267-39.381 69.803-66.56 99.115-33.877 36.565-74.795 66.56-120.064 87.552-33.707 15.616-69.717 26.283-106.539 31.616-16.725 2.389-33.621 3.584-50.517 3.925h-9.216zM708.907 275.328l-24.235-24.235-173.099 172.715-172.245-171.861-24.235 24.192 172.288 171.861-172.288 171.861 24.235 24.192 172.245-171.861 173.099 172.715 24.235-24.235-173.099-172.672 173.099-172.672z" />
<glyph unicode="&#xe913;" glyph-name="close" d="M806.2 742.2c-162.4 162.4-425.8 162.4-588.4 0s-162.4-425.8 0-588.4c162.4-162.4 425.8-162.4 588.4 0s162.4 426 0 588.4zM704 279.6l-23.6-23.6-168.8 168.4-168-167.6-23.6 23.6 168 167.6-168 167.6 23.6 23.6 168-167.6 168.8 168.4 23.6-23.6-168.8-168.4 168.8-168.4z" />
<glyph unicode="&#xe914;" glyph-name="cloud-download-outline" d="M392.576 209.536l-22.101-21.717 141.909-139.819 141.909 139.819-22.101 21.717-104.192-102.485v461.141h-31.232v-461.141l-104.192 102.485zM784.939 622.464l0.384 6.656c0 120.96-100.779 218.837-222.464 218.837-87.808 0-163.413-51.029-198.869-124.587-15.445 7.637-32.555 11.989-51.029 11.989-56.363 0-103.040-44.373-112.171-97.707-67.029-22.869-115.413-82.688-115.413-156.971 0-93.525 76.373-169.899 170.667-169.899h174.293v30.464h-172.757c-77.909 0-141.355 63.232-141.355 140.373 0 59.819 38.485 109.525 95.616 128.939l16 5.333 2.859 16.555c6.869 40.576 42.112 73.899 83.627 73.899 13.141 0 26.112-3.029 37.888-8.96l25.728-12.757 12.373 25.899c31.616 65.536 99.243 107.819 172.203 107.819 105.344 0 192.171-81.536 192.171-185.899 0-24.96-0.384-38.272-0.384-38.272l28.971-0.171c69.888-0.939 124.971-57.131 124.971-126.464 0-69.163-56.747-125.909-126.677-126.293l-6.101-0.171h-185.131v-30.464h192.384c85.717 0 155.989 70.869 155.989 156.373 0 85.717-67.413 155.221-153.728 155.435z" />
<glyph unicode="&#xe915;" glyph-name="cloud-download" d="M496.939 107.051l-104.192 102.485-22.272-21.717 141.909-139.819 141.909 139.819-22.485 21.717-104.363-102.485v203.819h-30.464v-203.819zM784.939 622.464l0.384 6.656c0 120.96-100.779 218.837-222.464 218.837-87.808 0-163.413-51.029-198.869-124.587-15.445 7.637-32.555 11.989-51.029 11.989-56.363 0-103.040-44.373-112.171-97.707-67.029-22.869-115.413-82.688-115.413-156.971 0-93.525 76.373-169.899 170.667-169.899h240.939v257.152h30.464v-257.152h255.232c85.717 0 155.989 70.869 155.989 156.373s-67.413 155.051-153.728 155.221z" />
<glyph unicode="&#xe916;" glyph-name="cloud-upload-outline" d="M392.576 438.869l-22.101 22.101 141.909 141.525 141.909-141.525-22.272-22.101-104.021 104.021v-460.587h-31.445v460.587l-104.021-104.021zM784.939 585.131l0.384 6.869c0 122.496-100.565 221.696-222.464 221.696-87.808 0-163.413-51.627-198.869-126.293-15.445 7.808-32.555 12.203-51.029 12.203-56.363 0-103.040-44.971-112.171-99.029-67.029-23.040-115.413-88.96-115.413-164.395 0-94.677 76.373-171.819 170.667-171.819h174.080v30.464h-172.587c-77.909 0-141.355 63.829-141.355 142.080 0 60.587 38.485 116.565 95.616 136.363l16 5.504 2.859 16.768c6.869 41.131 42.112 74.837 83.627 74.837 13.141 0 26.112-3.029 37.888-9.131l25.728-12.971 12.373 26.112c31.616 66.475 99.243 109.355 172.203 109.355 105.344 0 192.171-82.475 192.171-188.373 0-25.344-0.384-38.656-0.384-38.656l28.971-0.171c69.717-0.939 124.971-63.616 124.971-133.888 0-70.101-56.747-127.445-126.677-127.829h-191.445v-30.464h192.384c85.717 0 156.203 71.040 156.203 157.696s-67.627 162.859-153.728 163.029z" />
<glyph unicode="&#xe917;" glyph-name="cloud-upload" d="M496.768 264.747h30.464v-182.869h-30.464zM784.939 585.515l0.384 6.869c0 122.496-100.565 221.696-222.464 221.696-87.808 0-163.413-51.627-198.869-126.293-15.445 7.808-32.555 12.203-51.029 12.203-56.363 0-103.040-44.971-112.171-99.029-67.029-23.040-115.413-88.96-115.413-164.395 0-94.677 76.373-171.819 170.667-171.819h240.768v278.485l-104.192-103.808-22.101 22.101 141.909 141.525 141.909-141.525-22.485-22.101-104.576 103.808v-278.485h255.232c85.717 0 156.203 71.040 156.203 157.696s-67.627 162.859-153.728 163.029z" />
<glyph unicode="&#xe918;" glyph-name="email-outline, envelope-outline" d="M981.333 148.395h-938.667v599.211h938.667v-599.211zM938.667 675.755l-275.029-220.032c92.757-81.109 136.107-138.24 232.363-221.056l-265.899 194.219-118.101-94.464-117.504 93.995-266.496-193.749 233.301 220.288-275.968 220.8v-484.693h853.333v484.693zM906.88 704.939h-789.76l394.88-315.904 394.88 315.904z" />
<glyph unicode="&#xe919;" glyph-name="email, envelope" d="M981.333 720.469v-572.075h-938.667v572.075l320.597-263.68-235.264-222.123 268.203 194.987 115.797-95.232 115.797 95.232 268.203-194.987-235.264 222.123 320.597 263.68zM512 389.035l-435.2 358.571h870.4l-435.2-358.571z" />
<glyph unicode="&#xe91a;" glyph-name="exclamation-outline" d="M513.408 835.499l2.731-0.171 1.365-0.171 2.731-0.427 1.323-0.299 1.323-0.341 1.28-0.341 1.323-0.427 1.28-0.427 2.475-1.024 1.237-0.555 2.389-1.28 1.152-0.64 1.152-0.725 1.152-0.768 1.067-0.768 1.067-0.811 1.067-0.896 1.024-0.853 0.981-0.939 0.981-0.981 0.939-0.981 1.792-2.048 0.853-1.109 0.811-1.109 0.768-1.152 0.725-1.152 395.307-647.296 0.597-1.323 0.555-1.28 0.512-1.323 0.469-1.365 0.427-1.323 0.683-2.731 0.256-1.365 0.256-1.408 0.171-1.365 0.256-2.816 0.043-1.365v-1.408l-0.043-1.408-0.085-1.365-0.128-1.408-0.213-1.408-0.213-1.365-0.256-1.365-0.341-1.408-0.341-1.323-0.853-2.731-0.512-1.323-0.555-1.323-0.597-1.28-0.64-1.28-0.683-1.28-0.725-1.237-0.768-1.237-0.811-1.195-0.811-1.152-0.896-1.109-0.896-1.067-0.939-1.067-0.981-1.024-0.981-0.981-2.133-1.877-1.067-0.853-1.109-0.853-1.152-0.811-1.195-0.768-1.195-0.725-1.195-0.683-1.237-0.64-2.56-1.195-1.28-0.512-1.323-0.469-1.323-0.427-1.365-0.427-1.365-0.341-1.365-0.299-1.408-0.256-1.408-0.213-1.408-0.171-1.451-0.128-2.859-0.085-796.416 1.152-1.365 0.341-1.365 0.427-1.323 0.427-1.323 0.469-1.28 0.512-2.56 1.195-1.237 0.64-1.195 0.683-1.195 0.725-1.195 0.768-1.152 0.811-1.109 0.853-1.067 0.853-2.133 1.877-0.981 0.981-0.981 1.024-0.939 1.067-0.896 1.067-0.896 1.109-0.811 1.152-0.811 1.195-0.768 1.237-0.725 1.237-0.683 1.28-0.64 1.28-0.597 1.28-0.555 1.323-0.512 1.323-0.853 2.731-0.341 1.323-0.341 1.408-0.256 1.365-0.213 1.365-0.213 1.408-0.128 1.408-0.085 1.365-0.043 1.408v1.408l0.043 1.365 0.256 2.816 0.171 1.365 0.256 1.408 0.256 1.365 0.683 2.731 0.427 1.323 0.469 1.365 0.512 1.323 0.555 1.28 0.597 1.323 0.64 1.28 0.683 1.237 0.725 1.237 396.416 648.064 1.792 2.048 0.939 0.981 0.981 0.981 0.981 0.939 1.024 0.853 1.067 0.896 1.067 0.811 1.067 0.768 1.152 0.768 1.152 0.725 1.152 0.64 2.389 1.28 1.237 0.555 2.475 1.024 1.28 0.427 1.323 0.427 1.28 0.341 1.323 0.341 1.323 0.299 2.731 0.427 1.365 0.171 2.731 0.171h2.816zM511.829 792.533l-393.088-643.2 786.347 0.299-393.088 643.2-0.171-0.299zM514.176 277.291l2.176-0.171 2.133-0.299 2.091-0.341 2.091-0.512 2.005-0.555 2.005-0.683 1.92-0.768 1.877-0.853 1.835-0.939 1.792-1.024 1.749-1.109 1.664-1.195 1.621-1.237 1.536-1.365 1.493-1.408 1.408-1.493 1.365-1.536 1.237-1.621 1.195-1.664 1.109-1.749 1.024-1.792 0.939-1.835 0.853-1.877 0.768-1.92 0.683-2.005 0.555-2.005 0.512-2.091 0.341-2.091 0.299-2.133 0.171-2.176 0.043-2.176-0.043-2.176-0.171-2.176-0.299-2.133-0.341-2.091-0.512-2.091-0.555-2.005-0.683-2.005-0.768-1.92-0.853-1.877-0.939-1.835-1.024-1.792-1.109-1.749-1.195-1.664-1.237-1.621-1.365-1.536-1.408-1.493-1.493-1.408-1.536-1.365-1.621-1.237-1.664-1.195-1.749-1.109-1.792-1.024-1.835-0.939-1.877-0.853-1.92-0.768-2.005-0.683-2.005-0.555-2.091-0.512-2.091-0.341-2.133-0.299-2.176-0.171-2.176-0.043-2.176 0.043-2.176 0.171-2.133 0.299-2.091 0.341-2.091 0.512-2.005 0.555-2.005 0.683-1.92 0.768-1.877 0.853-1.835 0.939-1.792 1.024-1.749 1.109-1.664 1.195-1.621 1.237-1.536 1.365-1.493 1.408-1.408 1.493-1.365 1.536-1.237 1.621-1.195 1.664-1.109 1.749-1.024 1.792-0.939 1.835-0.853 1.877-0.768 1.92-0.683 2.005-0.555 2.005-0.512 2.091-0.341 2.091-0.299 2.133-0.171 2.176-0.043 2.176 0.043 2.176 0.171 2.176 0.299 2.133 0.341 2.091 0.512 2.091 0.555 2.005 0.683 2.005 0.768 1.92 0.853 1.877 0.939 1.835 1.024 1.792 1.109 1.749 1.195 1.664 1.237 1.621 1.365 1.536 1.408 1.493 1.493 1.408 1.536 1.365 1.621 1.237 1.664 1.195 1.749 1.109 1.792 1.024 1.835 0.939 1.877 0.853 1.92 0.768 2.005 0.683 2.005 0.555 2.091 0.512 2.091 0.341 2.133 0.299 2.176 0.171 2.176 0.043 2.176-0.043zM533.333 320h-42.667l-21.333 277.333h85.333l-21.333-277.333z" />
<glyph unicode="&#xe91b;" glyph-name="exclamation" d="M548.395 815.104c86.485-141.483 303.616-496.811 393.259-643.541 8.064-13.141 8.363-29.653 0.811-43.093-7.552-13.483-21.76-21.803-37.205-21.803h-786.517c-15.445 0-29.653 8.32-37.205 21.803-7.552 13.44-7.253 29.952 0.811 43.093 89.643 146.731 306.773 502.059 393.259 643.541 7.723 12.672 21.547 20.395 36.395 20.395s28.672-7.723 36.395-20.395zM512 277.333c-23.552 0-42.667-19.115-42.667-42.667s19.115-42.667 42.667-42.667c23.552 0 42.667 19.115 42.667 42.667s-19.115 42.667-42.667 42.667zM554.667 597.333h-85.333l21.333-277.333h42.667l21.333 277.333z" />
<glyph unicode="&#xe91c;" glyph-name="file-outline" d="M853.333 704v-725.333h-682.667v938.667h469.333l213.333-213.333zM213.333 874.667v-853.333h597.333v665.003l-188.331 188.331h-409.003zM597.333 661.333l170.667-21.333-213.333-21.333 21.333 213.333 21.333-170.667z" />
<glyph unicode="&#xe91d;" glyph-name="file" d="M640 917.333l213.333-213.333v-725.333h-682.667v938.667h469.333zM597.333 661.333l-21.333 213.333-21.333-256 256 21.333-213.333 21.333z" />
<glyph unicode="&#xe91e;" glyph-name="filing-outline" d="M784.725 758.315h-545.451l-153.941-232.747v-387.883h853.333v387.883l-153.941 232.747zM893.568 525.568h-110.080v164.864l110.080-164.864zM279.253 719.488h465.451v-193.92h-116.352c0-64.256-52.139-116.352-116.352-116.352-64.256 0-116.352 52.139-116.352 116.352h-116.352v193.92zM240.469 690.389v-164.864h-110.080l110.080 164.864zM899.883 176.469h-775.765v310.315h237.568c17.195-66.901 78.080-116.352 150.315-116.352s133.077 49.451 150.315 116.352h237.568v-310.315z" />
<glyph unicode="&#xe91f;" glyph-name="filing" d="M512 370.432c-72.235 0-133.077 49.451-150.315 116.352h-276.352v-349.099h853.333v349.099h-276.352c-17.195-66.901-78.080-116.352-150.315-116.352zM240.469 525.568h155.136c0-64.256 52.139-116.352 116.352-116.352 64.256 0 116.352 52.139 116.352 116.352h310.315l-153.941 232.747h-1.195v-193.92h-38.784v193.92h-465.451v-193.92h-38.784v193.92h-1.195l-153.941-232.747h155.136z" />
<glyph unicode="&#xe920;" glyph-name="flag-outline" d="M780.544 793.6c-26.411-3.371-59.776-8.405-95.275-8.405-55.424 0-105.6 13.696-156.459 24.491-51.584 11.051-104.875 22.315-161.28 22.315-112.555 0-150.741-24.235-154.581-26.88l-8.149-5.76v-735.36h38.4v343.936c14.421 6.016 52.309 16.555 124.544 16.555 52.309 0 101.291-19.925 153.344-31.189 52.821-11.264 107.52-23.040 166.784-23.040 35.285 0 66.475 4.821 92.885 7.936 14.421 1.664 27.136 3.371 38.4 5.291v416.171c-11.264-2.176-24.235-4.096-38.656-6.016zM780.544 416.811c-26.411-3.371-57.344-8.405-92.885-8.405-55.424 0-107.989 11.264-158.891 22.059-51.584 11.051-104.661 31.915-161.024 31.915-61.696 0-100.565-7.211-124.544-14.421v329.515c14.421 6.016 52.565 16.299 124.544 16.299 52.309 0 101.291-10.325 153.344-21.589 52.821-11.264 105.131-25.429 164.395-25.429 35.285 0 68.864 4.821 95.275 7.936l-0.256-337.92z" />
<glyph unicode="&#xe921;" glyph-name="flag" d="M780.544 793.6c-26.411-3.371-59.776-8.405-95.275-8.405-55.424 0-105.6 13.696-156.459 24.491-51.584 11.051-104.875 22.315-161.28 22.315-112.555 0-150.741-24.235-154.581-26.88l-8.149-5.76v-735.36h38.4v343.936c14.421 6.016 52.309 16.555 124.544 16.555 52.309 0 101.291-19.925 153.344-31.189 52.821-11.264 107.52-23.040 166.784-23.040 35.285 0 66.475 4.821 92.885 7.936 14.421 1.664 27.136 3.371 38.4 5.291v416.171c-11.264-2.176-24.235-4.096-38.656-6.016z" />
<glyph unicode="&#xe922;" glyph-name="flask" d="M891.051 208.213l-244.949 409.515v266.069h33.536v33.536h-67.072v-308.864l5.291-7.936 244.224-408.235c14.165-26.88 19.541-54.4 18.859-79.531-0.512-19.584-4.096-37.589-13.696-53.589-17.749-29.525-48.64-46.976-84.992-46.976h-536.149c-36.693 0-68.011 17.664-85.973 47.573-24.917 41.472-22.827 79.915 4.779 132.267l191.659 322.987h121.899v33.536h-101.973l30.763 51.883 4.181 8.064v7.125h100.565v33.493h-100.565v67.072h67.029v33.493h-67.029v67.072h100.565v33.536h-100.565v67.029h-67.072v-33.536h33.536v-266.069l-242.773-409.515c-17.621-33.152-26.197-65.749-25.344-95.445 2.219-76.501 60.117-134.101 136.32-134.101h536.149c76.032 0 130.176 57.813 131.968 134.101 0.725 29.824-5.461 62.123-23.168 95.445zM202.539 199.467c-14.507-22.101-22.912-50.475-22.912-70.272 0-57.813 33.109-83.499 95.701-83.499h473.387c62.421 0 94.208 32.939 95.701 83.755 0.597 19.883-6.571 47.616-21.12 69.803l-150.528 248.747h-321.067l-149.163-248.533z" />
<glyph unicode="&#xe923;" glyph-name="flask-reverse" d="M891.051 208.213l-244.949 409.515v266.069h33.536v33.536h-335.275v-33.536h33.536v-266.069l-242.773-409.515c-17.621-33.152-26.197-65.749-25.344-95.445 2.219-76.501 60.117-134.101 136.32-134.101h536.149c76.032 0 130.176 57.813 131.968 134.101 0.725 29.824-5.461 62.123-23.168 95.445zM411.435 850.304h100.565v-33.536h-100.565v33.536zM411.435 749.696h67.029v-33.493h-67.029v33.493zM411.435 649.131h100.565v-33.493h-100.565v33.493zM376.363 548.565h102.101v-33.536h-121.899l19.797 33.536zM844.373 129.451c-1.451-50.816-33.237-83.755-95.701-83.755h-473.387c-62.549 0-95.701 25.685-95.701 83.499 0 19.797 8.448 48.171 22.912 70.272l149.205 248.533h321.024l150.528-248.747c14.549-22.187 21.717-49.92 21.12-69.803z" />
<glyph unicode="&#xe924;" glyph-name="heart-outline" d="M731.989 795.435h3.371l3.371-0.213h3.371l6.741-0.427 3.157-0.213 6.741-0.427 3.157-0.427 3.371-0.213 9.472-1.28 3.371-0.64 3.157-0.427 3.157-0.64 3.157-0.427 2.944-0.64 6.315-1.28 2.944-0.853 3.157-0.64 2.944-0.853 3.157-0.64 5.888-1.707 2.944-1.067 5.888-1.707 2.944-1.067 2.731-1.067 2.944-1.067 2.731-1.067 2.944-1.067 2.731-1.237 2.731-1.067 2.731-1.237 2.731-1.067 2.731-1.237 2.731-1.451 2.731-1.237 2.517-1.237 2.731-1.451 2.517-1.237 2.517-1.451 2.731-1.451 5.035-2.901 2.304-1.664 2.517-1.451 2.517-1.664 2.304-1.664 2.304-1.451 2.517-1.664 2.304-1.877 4.608-3.328 2.304-1.877 2.091-1.877 2.304-1.877 4.181-3.755 2.304-1.877 2.091-1.877 1.877-2.091 2.091-1.877 2.091-2.091 1.877-2.091 2.091-2.091 1.877-2.091 1.877-2.304 1.877-2.091 1.877-2.304 1.877-2.091 1.664-2.304 1.877-2.304 3.328-4.608 1.664-2.517 1.664-2.304 1.664-2.517 1.451-2.304 1.664-2.517 4.352-7.552 1.451-2.731 1.451-2.517 1.237-2.731 1.451-2.731 1.237-2.517 2.475-5.461 1.237-2.944 1.237-2.731 1.067-2.731 1.067-2.944 1.067-2.731 3.2-8.832 0.853-2.944 1.067-3.157 1.707-5.888 0.853-3.157 0.64-3.157 0.853-3.157 3.2-15.787 0.427-3.371 0.64-3.371 0.427-3.157 0.427-3.371 0.213-3.371 0.427-3.371 0.213-3.371 0.427-3.541 0.213-3.371 0.213-3.541v-3.371l0.213-3.541v-13.184l-0.213-3.157v-3.371l-0.427-6.315-0.427-3.371-0.213-3.157-0.427-3.371-0.213-3.371-0.853-6.741-0.64-3.371-0.427-3.371-1.28-6.741-0.64-3.541-0.853-3.371-0.64-3.541-0.853-3.541-0.853-3.371-1.707-7.083-1.067-3.541-0.853-3.541-1.067-3.541-1.067-3.371-1.237-3.755-1.067-3.541-3.712-10.624-1.451-3.541-1.237-3.541-1.451-3.541-1.451-3.755-1.451-3.541-1.664-3.541-1.451-3.541-3.328-7.083-1.664-3.755-9.387-17.707-2.091-3.541-1.877-3.541-2.091-3.541-2.304-3.541-2.091-3.371-4.608-7.083-2.304-3.371-2.304-3.541-2.517-3.371-2.517-3.541-7.552-10.112-2.731-3.541-2.731-3.371-2.731-3.157-10.88-12.971-10.496-12.117-5.248-5.845-5.035-5.845-5.035-5.675-10.069-10.923-10.283-10.709-10.496-10.496-10.923-10.496-5.675-5.248-5.845-5.248-6.059-5.248-12.544-10.496-6.699-5.461-6.912-5.461-14.677-11.349-7.979-5.845-8.192-5.845-8.363-6.059-9.003-6.272-9.216-6.485-9.643-6.485-10.069-6.912-10.667-6.912-10.496-7.125-10.496-6.485-9.856-6.272-9.643-5.845-9.216-5.461-9.003-5.248-8.576-5.035-16.341-9.003-7.552-3.968-14.251-7.296-12.971-6.101-6.059-2.731-5.461-2.517-5.461-2.304-4.821-2.091-4.608-1.877-4.181-1.664-3.968-1.451-3.541-1.237-3.371-1.237-2.944-1.067-2.517-0.853-2.304-0.64-3.371-1.067-2.091-0.427-0.64-0.213-0.64 0.213-2.091 0.427-3.371 1.067-2.304 0.64-2.517 0.853-2.944 1.067-3.371 1.237-3.541 1.237-3.968 1.451-4.181 1.664-4.608 1.877-4.821 2.091-5.461 2.304-5.461 2.517-6.059 2.731-6.272 2.944-6.485 3.157-7.125 3.541-7.339 3.755-7.552 3.968-16.341 9.003-8.576 5.035-9.003 5.248-9.216 5.461-9.643 5.845-9.856 6.272-10.496 6.485-10.496 7.125-10.667 6.912-10.069 6.912-9.643 6.485-9.216 6.485-9.003 6.272-8.363 6.059-8.192 5.845-7.979 5.845-14.677 11.349-6.912 5.461-6.699 5.461-12.544 10.496-6.059 5.248-5.845 5.248-5.675 5.248-10.923 10.496-10.496 10.496-10.283 10.709-10.069 10.923-5.035 5.675-5.035 5.845-5.248 5.845-10.496 12.117-10.88 12.971-2.731 3.157-2.731 3.371-2.731 3.541-7.552 10.112-2.517 3.541-2.517 3.371-2.304 3.541-2.304 3.371-4.608 7.083-2.091 3.371-2.304 3.541-2.091 3.541-1.877 3.541-2.091 3.541-9.387 17.707-1.664 3.755-3.328 7.083-1.451 3.541-1.664 3.541-1.451 3.541-1.451 3.755-1.451 3.541-1.237 3.541-1.451 3.541-3.712 10.624-1.067 3.541-1.067 3.755-1.237 3.371-1.067 3.541-0.853 3.541-1.067 3.541-1.707 7.083-0.853 3.371-0.853 3.541-0.64 3.541-0.853 3.371-0.64 3.541-1.28 6.741-0.427 3.371-0.64 3.371-0.853 6.741-0.213 3.371-0.427 3.371-0.213 3.157-0.427 3.371-0.427 6.315v3.371l-0.213 3.157v13.184l0.213 3.541 0.213 3.371v3.541l0.213 3.371 0.427 3.541 0.213 3.371 0.427 3.371 0.213 3.371 0.427 3.371 0.427 3.157 0.64 3.371 0.427 3.371 3.2 15.787 0.853 3.157 0.64 3.157 0.853 3.157 1.707 5.888 1.067 3.157 0.853 2.944 3.2 8.832 1.067 2.731 1.067 2.944 1.067 2.731 1.237 2.731 1.237 2.944 2.475 5.461 1.237 2.517 1.451 2.731 1.237 2.731 1.451 2.517 1.451 2.731 4.352 7.552 1.664 2.517 1.451 2.304 1.664 2.517 1.664 2.304 1.664 2.517 3.328 4.608 1.877 2.304 1.664 2.304 1.877 2.091 1.877 2.304 1.877 2.091 1.877 2.304 1.877 2.091 2.091 2.091 1.877 2.091 2.091 2.091 2.091 1.877 1.877 2.091 2.091 1.877 2.304 1.877 4.181 3.755 2.304 1.877 2.091 1.877 2.304 1.877 4.608 3.328 2.304 1.877 2.517 1.664 2.304 1.451 2.304 1.664 2.517 1.664 2.517 1.451 2.517 1.664 2.304 1.451 2.517 1.451 2.731 1.451 2.517 1.451 2.517 1.237 2.731 1.451 2.517 1.237 2.731 1.237 2.731 1.451 2.731 1.237 2.731 1.067 2.731 1.237 2.731 1.067 2.731 1.237 2.944 1.067 2.731 1.067 2.944 1.067 2.731 1.067 2.944 1.067 5.888 1.707 2.944 1.067 5.888 1.707 3.157 0.64 2.944 0.853 3.157 0.64 2.944 0.853 6.315 1.28 2.944 0.64 3.157 0.427 3.157 0.64 3.157 0.427 3.371 0.64 9.472 1.28 3.371 0.213 3.157 0.427 6.741 0.427 3.157 0.213 6.741 0.427h3.371l3.371 0.213h10.709l3.755-0.213h3.968l3.755-0.213 3.968-0.213 3.968-0.427 3.755-0.213 7.936-0.853 3.755-0.64 7.936-1.28 3.755-0.64 3.968-0.64 3.968-0.853 3.755-0.853 3.968-0.853 3.755-1.067 3.968-1.067 11.264-3.2 3.968-1.237 3.755-1.237 3.755-1.451 3.755-1.237 3.541-1.451 7.509-2.901 7.083-3.328 3.755-1.664 3.541-1.664 3.371-1.877 7.083-3.755 3.371-1.877 3.541-2.091 6.741-4.181 3.371-2.304 3.157-2.091 3.371-2.304 3.157-2.517 3.157-2.304 3.157-2.517 2.944-2.517 3.157-2.517 2.944-2.731 2.944-2.517 8.405-8.405 5.461-5.888 2.517-2.944 7.552-9.472 2.304-3.157 4.608-6.741 4.181-6.741 4.181 6.741 4.608 6.741 2.304 3.157 7.552 9.472 2.517 2.944 5.461 5.888 8.405 8.405 2.944 2.517 2.944 2.731 3.157 2.517 2.944 2.517 3.157 2.517 3.157 2.304 3.157 2.517 3.371 2.304 3.157 2.091 3.371 2.304 6.741 4.181 3.541 2.091 3.371 1.877 7.083 3.755 3.371 1.877 3.755 1.664 10.624 4.992 7.509 2.901 3.541 1.451 3.755 1.237 3.755 1.451 3.755 1.237 3.968 1.237 11.264 3.2 3.968 1.067 3.755 1.067 3.968 0.853 3.755 0.853 3.968 0.853 3.968 0.64 3.755 0.64 7.936 1.28 3.755 0.64 7.936 0.853 3.755 0.213 3.968 0.427 3.968 0.213 3.755 0.213h3.968l3.755 0.213h7.339zM292.395 752.683h-5.888l-2.944-0.213h-2.944l-2.731-0.213-5.888-0.427-2.731-0.213-2.944-0.213-2.731-0.427-2.731-0.213-2.731-0.427-2.944-0.427-2.731-0.427-2.517-0.427-5.461-0.853-2.731-0.64-2.517-0.427-2.731-0.64-5.035-1.28-2.731-0.64-5.035-1.28-2.517-0.853-2.304-0.64-5.035-1.707-2.304-0.853-2.517-0.853-4.608-1.707-2.517-0.853-2.304-1.067-2.304-0.853-2.091-1.067-4.608-2.133-2.091-1.067-2.304-1.067-2.091-1.067-2.091-1.237-2.304-1.067-2.091-1.237-2.091-1.067-1.877-1.237-4.181-2.475-1.877-1.237-2.091-1.237-1.877-1.237-1.877-1.451-1.877-1.237-3.755-2.901-1.877-1.237-1.877-1.451-1.664-1.451-1.877-1.664-3.328-2.901-1.664-1.664-1.664-1.451-1.664-1.664-1.664-1.451-3.328-3.328-2.901-3.328-1.664-1.877-2.901-3.328-2.901-3.755-1.451-1.664-1.237-1.877-1.451-1.877-1.237-1.877-1.451-1.877-1.237-2.091-1.237-1.877-1.237-2.091-1.237-1.877-1.067-2.091-2.475-4.181-4.267-8.363-1.067-2.304-1.067-2.091-1.067-2.304-0.853-2.304-1.067-2.304-1.707-4.608-1.067-2.304-0.64-2.517-0.853-2.304-1.707-5.035-0.64-2.304-0.64-2.517-0.853-2.731-0.64-2.517-0.427-2.517-0.64-2.731-0.64-2.517-0.427-2.731-0.64-2.731-1.707-10.923-0.213-2.944-0.427-2.731-1.28-17.664v-17.024l0.213-2.731 0.213-2.517v-2.731l0.213-2.944 0.427-2.731 0.213-2.731 0.427-2.944 0.213-2.731 1.28-8.832 0.64-2.944 0.427-2.944 0.64-3.157 1.28-5.888 0.64-3.157 0.853-3.157 0.64-2.944 2.56-9.472 1.067-3.157 0.853-3.157 4.267-12.629 1.237-3.157 1.067-3.157 1.237-3.157 1.237-3.371 1.237-3.157 1.451-3.157 1.237-3.157 1.451-3.157 1.451-3.371 2.901-6.315 1.664-3.157 1.664-3.371 6.656-12.629 7.509-12.629 2.091-3.157 2.091-2.944 1.877-3.157 2.091-3.157 2.304-2.944 2.091-3.157 2.304-2.944 2.304-3.157 6.912-8.832 2.517-3.157 10.667-12.587 5.248-6.059 5.035-5.845 5.035-5.675 9.643-10.923 9.643-10.496 9.643-10.069 4.821-4.821 4.821-5.035 5.035-4.821 10.496-9.643 5.461-4.821 5.675-4.821 11.691-10.069 6.272-5.035 13.397-10.496 7.339-5.461 7.339-5.675 7.979-5.675 8.192-5.845 8.576-6.059 9.003-6.272 9.429-6.485 10.069-6.699 10.283-6.699 10.283-6.912 10.069-6.272 9.429-6.059 9.429-5.675 8.789-5.248 16.768-9.856 7.979-4.395 7.552-3.968 14.251-7.296 12.544-6.528 5.845-2.731 5.675-2.517 5.035-2.304 4.821-2.091 4.608-1.877 4.181-1.664 3.755-1.451 3.371-1.237 3.157-1.237 2.731-0.853 2.731 0.853 3.157 1.237 3.371 1.237 3.755 1.451 4.181 1.664 4.608 1.877 4.821 2.091 5.035 2.304 5.675 2.517 5.845 2.731 12.544 6.528 14.251 7.296 7.552 3.968 7.979 4.395 16.768 9.856 8.789 5.248 9.429 5.675 9.429 6.059 10.069 6.272 10.283 6.912 10.283 6.699 10.069 6.699 9.429 6.485 9.003 6.272 8.576 6.059 8.192 5.845 7.979 5.675 7.339 5.675 7.339 5.461 13.397 10.496 6.272 5.035 11.691 10.069 5.675 4.821 5.461 4.821 10.496 9.643 5.035 4.821 4.821 5.035 4.821 4.821 9.643 10.069 9.643 10.496 9.643 10.923 5.035 5.675 5.035 5.845 5.248 6.059 10.667 12.587 2.517 3.157 6.912 8.832 2.304 3.157 2.304 2.944 2.091 3.157 2.304 2.944 2.091 3.157 1.877 3.157 2.091 2.944 2.091 3.157 7.509 12.629 6.656 12.629 1.664 3.371 1.664 3.157 2.901 6.315 1.451 3.371 1.451 3.157 1.237 3.157 1.451 3.157 1.237 3.157 1.237 3.371 1.237 3.157 1.067 3.157 1.237 3.157 4.267 12.629 0.853 3.157 1.067 3.157 2.56 9.472 0.64 2.944 0.853 3.157 0.64 3.157 1.28 5.888 0.64 3.157 0.427 2.944 0.64 2.944 1.28 8.832 0.213 2.731 0.427 2.944 0.213 2.731 0.427 2.731 0.213 2.944v2.731l0.213 2.517 0.213 2.731v17.024l-1.28 17.664-0.427 2.731-0.213 2.944-1.707 10.923-0.64 2.731-0.427 2.731-0.64 2.517-0.427 2.731-1.28 5.035-0.853 2.731-0.64 2.517-0.64 2.304-1.707 5.035-0.853 2.304-0.64 2.517-1.067 2.304-1.707 4.608-1.067 2.304-0.853 2.304-1.067 2.304-1.067 2.091-1.067 2.304-4.267 8.363-2.475 4.181-1.067 2.091-1.237 1.877-1.237 2.091-1.237 1.877-1.237 2.091-1.451 1.877-1.237 1.877-1.451 1.877-1.237 1.877-1.451 1.664-2.901 3.755-2.901 3.328-1.664 1.877-2.901 3.328-3.328 3.328-1.664 1.451-1.664 1.664-1.664 1.451-1.664 1.664-3.328 2.901-1.877 1.664-1.664 1.451-1.877 1.451-1.877 1.237-3.755 2.901-1.877 1.237-1.877 1.451-1.877 1.237-2.091 1.237-1.877 1.237-4.181 2.475-1.877 1.237-2.091 1.067-2.091 1.237-2.304 1.067-2.091 1.237-2.091 1.067-2.304 1.067-2.091 1.067-4.608 2.133-2.091 1.067-2.304 0.853-2.304 1.067-2.517 0.853-4.608 1.707-2.517 0.853-2.304 0.853-2.517 0.853-2.304 0.853-2.517 0.64-2.517 0.853-5.035 1.28-2.731 0.64-5.035 1.28-2.731 0.64-2.517 0.427-2.731 0.64-5.461 0.853-2.517 0.427-2.731 0.427-2.944 0.427-2.731 0.427-2.731 0.213-2.731 0.427-2.944 0.213-2.731 0.213-2.944 0.213-2.731 0.213-2.944 0.213h-2.944l-2.944 0.213h-15.573l-3.157-0.213h-3.371l-3.371-0.213-3.371-0.427-3.371-0.213-13.483-1.707-3.157-0.427-10.112-1.92-3.371-0.853-3.371-0.64-3.157-0.853-3.371-0.853-3.371-1.067-3.157-0.853-3.371-1.067-3.157-1.067-3.371-1.067-3.157-1.067-12.629-4.949-2.944-1.237-3.157-1.451-2.944-1.237-2.944-1.451-3.157-1.664-2.731-1.451-2.944-1.664-2.944-1.451-2.731-1.664-2.944-1.877-2.731-1.664-2.731-1.877-2.731-1.664-2.517-1.877-2.731-1.877-2.517-2.091-2.517-1.877-2.517-2.091-4.608-4.181-2.517-2.091-2.304-2.091-2.091-2.304-2.304-2.304-6.272-6.912-1.877-2.517-2.091-2.304-3.755-5.035-1.664-2.517-1.877-2.731-1.664-2.517-14.251-23.467h-47.787l-14.251 23.467-1.664 2.517-1.877 2.731-1.664 2.517-3.755 5.035-2.091 2.304-1.877 2.517-6.272 6.912-2.304 2.304-2.091 2.304-2.304 2.091-2.517 2.091-4.608 4.181-2.517 2.091-2.517 1.877-2.517 2.091-2.731 1.877-2.517 1.877-2.731 1.664-2.731 1.877-2.731 1.664-2.944 1.877-2.731 1.664-2.944 1.451-2.944 1.664-2.731 1.451-3.157 1.664-2.944 1.451-2.944 1.237-3.157 1.451-2.944 1.237-12.629 4.949-3.157 1.067-3.371 1.067-3.157 1.067-3.371 1.067-3.157 0.853-3.371 1.067-3.157 0.853-3.371 0.853-3.371 0.64-3.371 0.853-10.112 1.92-3.157 0.427-13.483 1.707-3.371 0.213-3.371 0.427-3.371 0.213h-3.371l-3.157 0.213h-9.685z" />
<glyph unicode="&#xe925;" glyph-name="heart" d="M728.619 795.435c-82.603 0-172.245-36.864-216.619-110.635-44.373 73.771-134.016 110.635-216.619 110.635-144.512 0-252.715-90.581-252.715-242.603 0-65.536 26.325-150.699 85.76-221.397s94.763-108.331 209.835-184.363c115.072-76.075 173.739-89.173 173.739-89.173s58.667 13.141 173.739 89.173c115.072 76.075 150.443 113.707 209.835 184.363 59.435 70.699 85.76 155.819 85.76 221.397 0 151.979-108.203 242.603-252.715 242.603z" />
<glyph unicode="&#xe926;" glyph-name="helix" d="M458.368 251.392l219.264 140.459c7.68 4.821 16.256 8.277 25.173 10.069l9.941 1.323 4.779 0.171h1.195l7.595-0.512c5.291-0.597 10.539-1.749 15.616-3.456 6.699-2.261 13.056-5.461 18.859-9.515 9.216-6.4 16.939-14.891 22.485-24.619 3.371-5.888 5.888-12.203 7.552-18.773 2.005-8.064 2.688-16.427 2.005-24.704-0.725-8.789-2.987-17.408-6.656-25.387-2.56-5.547-5.803-10.752-9.6-15.488l-8.405-8.832-0.256-0.299-0.213-0.213-0.512-0.469-1.365-1.28-13.525-12.629-17.365-16.171-281.259-262.4-5.504 3.243-0.597 0.384-0.213 0.128-0.427 0.299-0.213 0.128-0.64 0.427-0.384 0.213-0.896 0.597-0.341 0.213-0.256 0.171-0.341 0.256-0.299 0.171-0.341 0.256-0.256 0.171-0.341 0.213-0.896 0.597-0.341 0.256-0.256 0.171-0.341 0.256-0.256 0.171-0.341 0.256-0.256 0.171-0.384 0.299-0.213 0.171-0.427 0.256-0.171 0.171-0.597 0.427-0.811 0.597-0.171 0.128-0.768 0.597-0.811 0.597-0.128 0.128-0.811 0.597-0.811 0.683-0.043 0.043-11.52 10.155-2.389 2.389-0.512 0.555-1.067 1.067-0.427 0.512-0.299 0.299-0.299 0.341-0.427 0.427-0.299 0.341-0.384 0.427-0.341 0.341-0.341 0.384-0.213 0.256-0.469 0.512-0.256 0.299-0.427 0.469-0.256 0.341-0.427 0.469-0.256 0.299-0.427 0.469-0.341 0.427-0.171 0.171-0.512 0.683-0.085 0.085-0.469 0.555-0.171 0.213-0.427 0.512-0.128 0.171-0.512 0.64-0.213 0.256-0.341 0.384-0.213 0.299-0.341 0.427-0.256 0.384-0.384 0.469-0.256 0.299-0.512 0.683-0.256 0.384-0.213 0.256-0.213 0.299-0.256 0.299-0.256 0.384-0.213 0.299-0.299 0.384-0.213 0.341-0.171 0.213-0.256 0.384-0.256 0.299-0.256 0.384-0.213 0.299-0.256 0.341-0.427 0.597-0.213 0.341-0.256 0.384-0.213 0.299-0.299 0.427-0.597 0.896-0.171 0.299-0.299 0.427-0.171 0.299-0.384 0.555-0.085 0.128-0.427 0.683-0.171 0.213-0.299 0.555-0.171 0.213-0.427 0.683-0.427 0.725-0.171 0.256-0.299 0.512-0.128 0.256-0.341 0.512-0.128 0.213-0.384 0.683-0.171 0.256-0.256 0.469-0.213 0.341-0.213 0.384-0.213 0.341-0.256 0.469-0.128 0.213-0.171 0.341-0.427 0.768-0.171 0.341-0.213 0.384-0.171 0.299-0.811 1.493-0.128 0.299-0.256 0.427-0.128 0.299-0.256 0.469-0.341 0.683-0.213 0.384-0.128 0.299-0.213 0.427-0.128 0.299-0.384 0.768-0.213 0.384-0.299 0.64v0.043l-0.384 0.768-0.128 0.341-0.384 0.768-0.213 0.512-0.128 0.256-0.299 0.725-0.128 0.256-0.213 0.512-0.128 0.299-0.256 0.512-0.085 0.256-0.341 0.768-0.384 0.896-0.085 0.299-0.256 0.597-0.128 0.341-0.384 0.896-0.256 0.64-0.085 0.299-0.256 0.64-0.128 0.256-0.256 0.768-0.085 0.128c-2.389 6.4-4.309 12.971-5.845 19.627v0.085l-0.213 0.853-0.043 0.256-0.128 0.725-0.085 0.256-0.128 0.683-0.043 0.341-0.128 0.64-0.085 0.299-0.128 0.683-0.043 0.299-0.213 0.939-0.171 0.981-0.043 0.299-0.128 0.683-0.043 0.341-0.085 0.64-0.085 0.341-0.085 0.683-0.043 0.299-0.128 0.768-0.043 0.213-0.384 3.029v0.085l-0.128 0.939v0.085l-0.128 0.939v0.085l-0.128 0.981v0.043l-0.768 11.435v1.152l-0.043 0.896v4.437l0.043 0.683v1.365l0.043 0.683v0.299l0.085 1.963v0.299l0.043 0.683 0.043 0.341v0.64l0.043 0.341 0.043 0.64 0.043 0.341 0.043 0.725v0.256l0.085 0.853v0.085l0.299 3.072v0.085l0.085 0.896v0.128l0.128 0.896v0.085l0.853 6.101 0.128 1.024 0.939 5.077v0.043l0.213 0.896v0.171l0.171 0.811 0.043 0.213 0.171 0.768 0.085 0.213 0.171 0.811 0.043 0.171 0.213 0.939v0.043l0.213 0.981 0.043 0.171 0.213 0.768 0.085 0.299 0.128 0.64 0.128 0.341 0.128 0.597 0.128 0.384 0.128 0.555 0.128 0.384 0.128 0.597 0.128 0.341 0.171 0.64 0.085 0.256 0.853 2.859v0.085l0.299 0.853v0.128l0.299 0.853 0.043 0.085 0.256 0.896 0.043 0.043 5.888 15.061 0.043 0.085 0.341 0.768 0.085 0.213 0.768 1.536 0.128 0.299 0.299 0.597 0.128 0.299 0.299 0.555 0.128 0.299 0.299 0.64 0.128 0.256 0.469 0.853 0.555 1.109 0.341 0.64 0.128 0.256 0.341 0.597 0.128 0.256 0.341 0.597 0.128 0.256 0.341 0.64 0.128 0.213 0.384 0.683 0.085 0.128 0.427 0.768 0.043 0.085c3.371 5.803 7.083 11.392 11.179 16.683l0.043 0.085 0.555 0.683 0.171 0.171 0.427 0.597 0.213 0.256 0.384 0.469 0.256 0.341 0.341 0.427 0.299 0.341 0.341 0.427 0.299 0.384 0.213 0.256 0.384 0.469 0.171 0.171 0.555 0.683 0.128 0.128 0.469 0.512 0.213 0.256 0.341 0.427 0.256 0.256 0.341 0.427 0.213 0.256 0.512 0.512 0.085 0.128 0.597 0.64 0.171 0.213 0.427 0.427 0.213 0.256 0.384 0.427 0.213 0.213 0.469 0.512 0.128 0.128 0.597 0.64 0.853 0.853 0.384 0.427 0.555 0.555 3.755 3.669 0.683 0.683 33.493 31.189zM512.768 302.123l142.165 132.608c20.309 18.901 21.419 50.688 2.475 70.955-14.891 16-37.931 19.755-56.875 11.52 57.344 26.155 127.403 14.251 172.715-34.347 38.699-41.515 49.451-99.072 33.067-149.504l-1.451 11.776c-1.579 8.107-4.309 16.043-8.107 23.424-6.443 12.587-16 23.595-27.52 31.829-7.040 4.992-14.848 9.003-23.040 11.733-5.973 2.005-12.117 3.413-18.389 4.096l-9.387 0.597-1.877-0.043-9.856-0.64c-6.912-0.896-13.696-2.56-20.224-4.992l-10.965-4.992-5.077-2.987-2.389-1.536-155.264-99.499zM513.024 446.208l-143.957-134.272c-20.309-18.901-21.419-50.688-2.475-70.955 13.099-14.080 32.939-18.987 50.304-14.336-56.064-22.357-122.539-9.6-166.144 37.163-38.699 41.515-49.451 99.072-33.067 149.504 0.512-8.619 2.261-17.109 5.205-25.216 3.328-9.131 8.192-17.707 14.336-25.301 5.931-7.296 12.971-13.653 20.864-18.773 8.704-5.589 18.347-9.643 28.416-11.947 7.083-1.579 14.379-2.347 21.632-2.176 7.296 0.171 14.592 1.195 21.589 3.115 5.717 1.579 11.264 3.712 16.555 6.4l7.851 4.48 1.28 0.811 1.024 0.725 156.587 100.779zM730.709 917.333l5.461-3.243 0.597-0.384 0.64-0.384 0.213-0.171 0.384-0.256 0.256-0.128 0.64-0.427 0.341-0.213 0.896-0.597 0.341-0.256 0.256-0.171 0.341-0.213 0.299-0.171 0.341-0.256 0.256-0.171 0.341-0.256 0.256-0.171 0.341-0.256 0.256-0.171 0.341-0.256 0.64-0.427 0.213-0.171 0.384-0.256 0.213-0.171 0.427-0.299 0.171-0.128 0.597-0.427 0.811-0.597 0.171-0.128 0.811-0.64h0.043l0.768-0.597 0.128-0.085 0.811-0.64v-0.043l0.853-0.64v-0.043l9.216-7.979 1.536-1.451 3.072-3.072 0.213-0.256 1.28-1.28 0.299-0.341 0.384-0.427 0.213-0.213 0.512-0.555 0.171-0.171 0.427-0.469 0.256-0.299 0.384-0.427 0.341-0.341 0.341-0.427 0.683-0.768 0.384-0.427 0.299-0.341 0.427-0.512 0.256-0.256 0.683-0.811 0.555-0.64 0.128-0.213 0.427-0.512 0.171-0.171 0.512-0.64 0.512-0.683 0.213-0.256 0.384-0.427 0.171-0.213 0.469-0.64 0.213-0.299 0.299-0.341 0.256-0.341 0.299-0.384 0.171-0.213 0.213-0.256 0.256-0.384 1.024-1.365 0.171-0.256 0.256-0.341 0.213-0.299 0.256-0.384 0.213-0.299 0.299-0.384 0.384-0.555 0.256-0.384 0.213-0.299 0.256-0.384 0.256-0.341 0.213-0.341 0.64-0.896 0.256-0.427 0.213-0.299 0.299-0.469 0.128-0.213 0.469-0.683 0.128-0.213 0.341-0.512 0.128-0.213 0.427-0.683 0.043-0.043 0.427-0.725 0.128-0.213 0.341-0.512 0.512-0.853 0.043-0.085 0.469-0.725 0.128-0.256 0.299-0.469 0.171-0.299 0.256-0.469 0.171-0.256 0.384-0.725 0.171-0.256 0.213-0.427 0.213-0.384 0.213-0.341 0.213-0.384 0.171-0.384 0.213-0.341 0.171-0.341 0.171-0.299 0.256-0.427 0.128-0.299 0.256-0.427 0.128-0.299 0.256-0.469 0.085-0.171 0.256-0.469 0.213-0.427 0.128-0.299 0.213-0.427 0.171-0.299 0.213-0.427 0.128-0.299 0.555-1.109 0.171-0.384 0.171-0.341 0.171-0.384 0.213-0.384 0.171-0.384 0.213-0.512 0.085-0.213 0.128-0.213 0.213-0.512 0.171-0.341 0.213-0.469 0.128-0.299 0.213-0.512 0.128-0.256 0.299-0.725 0.085-0.171 0.256-0.64 0.128-0.256 0.171-0.469 0.213-0.469 0.171-0.384 0.213-0.555 0.128-0.341 0.256-0.597 0.085-0.299 0.299-0.683 0.085-0.213 1.707-4.651 0.299-0.939h0.043l0.299-0.939 2.859-9.6 0.213-0.939 0.043-0.043 0.213-0.896 0.043-0.085 0.213-0.853v-0.085l0.213-0.939v-0.043l0.683-2.901v-0.128l0.171-0.768 0.085-0.299 0.128-0.64 0.043-0.384 0.128-0.555 0.085-0.384 0.085-0.555 0.085-0.427 0.085-0.555 0.085-0.384 0.085-0.64 0.085-0.341 0.128-0.768v-0.171l0.171-0.981v-0.043l0.171-0.939v-0.213l0.171-1.024 0.085-0.768 0.043-0.213 0.128-0.811v-0.171l0.128-0.896v-0.085l0.555-5.077v-0.043l0.085-1.024 0.341-6.144v-0.085l0.043-0.896v-0.128l0.043-0.939v-0.085l0.043-3.029v-3.925l-0.043-0.341v-0.981l-0.085-1.963v-0.299l-0.043-0.683v-0.341l-0.043-0.64v-0.341l-0.043-0.64-0.043-0.341-0.043-0.725v-0.256l-0.085-0.853v-0.085l-0.256-3.072v-0.085l-0.085-0.896-0.043-0.128-0.085-0.896v-0.085l-0.811-6.101-0.171-1.024v-0.043l-0.896-5.035v-0.085l-0.171-0.896-0.043-0.171-0.171-0.768-0.043-0.213-0.171-0.768-0.043-0.256-0.171-0.768-0.043-0.171-0.427-1.963-0.043-0.171-0.171-0.768-0.085-0.341-0.171-0.597-0.085-0.384-0.171-0.555-0.085-0.427-0.128-0.512-0.128-0.384-0.128-0.555-0.085-0.384-0.213-0.597-0.043-0.299-0.256-0.811v-0.128l-0.853-2.816-0.043-0.085-0.256-0.853-0.043-0.085-0.256-0.896-0.043-0.043-0.299-0.896v-0.043l-0.299-0.939-3.541-9.344-0.384-0.896v-0.043l-0.384-0.896-2.005-4.523-0.128-0.213-0.299-0.64-0.128-0.299-1.152-2.304-0.171-0.384-0.256-0.469-0.171-0.384-0.427-0.853-0.299-0.512-0.171-0.299-0.341-0.64-0.085-0.213-0.469-0.811c-3.328-6.101-7.040-11.947-11.179-17.536l-0.043-0.043-0.555-0.725-0.085-0.128-0.469-0.64-0.171-0.213-0.427-0.512-0.213-0.299-0.341-0.469-0.256-0.299-0.341-0.469-0.299-0.341-0.299-0.384-0.512-0.64-0.427-0.512-0.128-0.171-0.555-0.683-0.128-0.128-0.469-0.555-0.171-0.213-0.384-0.427-0.213-0.256-0.384-0.469-0.171-0.213-0.512-0.555-0.085-0.128-0.555-0.64-0.213-0.213-0.384-0.427-0.213-0.256-0.384-0.427-0.213-0.213-0.469-0.512-0.128-0.171-0.597-0.64-0.171-0.171-0.427-0.469-0.64-0.64-0.213-0.256-4.011-4.011-1.408-1.323-0.683-0.683-191.147-178.219-225.707-145.109c-4.523-2.517-9.344-4.523-14.293-6.016-6.059-1.877-12.331-2.944-18.688-3.2-6.315-0.256-12.629 0.256-18.816 1.536-8.576 1.792-16.811 5.12-24.235 9.728-6.869 4.267-13.056 9.685-18.219 15.872-5.291 6.4-9.515 13.611-12.459 21.376-3.243 8.619-4.907 17.877-4.864 27.136 0.043 9.685 1.963 19.328 5.632 28.288 2.603 6.315 6.016 12.245 10.24 17.621l0.64 0.811 10.709 11.051 472.576 440.576z" />
<glyph unicode="&#xe927;" glyph-name="help-empty" d="M520.832 222.379c-19.285 0-34.859 15.403-34.859 34.645 0 19.072 15.573 34.475 34.859 34.475s34.859-15.403 34.859-34.475c0-19.285-15.573-34.645-34.859-34.645zM590.165 458.88c-46.763-46.165-45.525-56.192-47.787-109.312h-38.955c2.261 58.453 15.403 89.643 61.739 132.309 22.571 21.12 39.808 46.549 39.808 78.165 0 48.427-39.808 81.835-87.381 81.835-66.475 0-99.499-33.621-98.261-95.189h-38.571c0.597 86.144 50.048 127.403 138.667 127.403 67.712 0 123.904-41.856 123.904-112 0-44.928-21.931-74.24-53.12-103.168z" />
<glyph unicode="&#xe928;" glyph-name="help-outline" d="M517.504 874.624l5.504-0.085 5.461-0.171 5.461-0.256 5.461-0.299 5.419-0.384 5.419-0.427 5.376-0.512 5.376-0.597 5.333-0.64 5.333-0.725 5.291-0.768 5.291-0.853 5.248-0.896 5.248-0.981 5.205-1.024 5.205-1.109 5.163-1.152 5.163-1.237 5.12-1.28 5.12-1.365 5.077-1.408 5.035-1.451 5.035-1.536 4.992-1.579 4.949-1.664 4.949-1.707 4.907-1.749 4.907-1.835 4.864-1.877 4.821-1.92 4.779-2.005 4.779-2.048 4.736-2.091 4.693-2.176 4.693-2.219 4.651-2.261 4.608-2.347 4.565-2.389 4.565-2.432 4.523-2.475 4.48-2.56 4.437-2.603 4.437-2.645 4.395-2.688 4.352-2.731 4.309-2.816 4.267-2.859 4.224-2.901 4.181-2.944 4.181-2.987 4.139-3.029 4.096-3.115 4.053-3.157 4.011-3.2 3.968-3.243 3.925-3.285 3.883-3.328 3.84-3.371 3.797-3.413 3.755-3.456 3.712-3.499 3.669-3.541 3.627-3.584 3.584-3.627 3.541-3.669 3.499-3.712 3.456-3.755 3.413-3.797 3.371-3.84 3.328-3.883 3.285-3.925 3.243-3.968 3.2-4.011 3.157-4.053 3.115-4.096 3.029-4.139 2.987-4.181 2.944-4.181 2.901-4.224 2.859-4.267 2.816-4.309 2.731-4.352 2.688-4.395 2.645-4.437 2.603-4.437 2.56-4.48 2.475-4.523 2.432-4.565 2.389-4.565 2.347-4.608 2.261-4.651 2.219-4.693 2.176-4.693 2.091-4.736 2.048-4.779 2.005-4.779 1.92-4.821 1.877-4.864 1.835-4.907 1.749-4.907 1.707-4.949 1.664-4.949 1.579-4.992 1.536-5.035 1.451-5.035 1.408-5.077 1.365-5.12 1.28-5.12 1.237-5.163 1.152-5.163 1.109-5.205 1.024-5.205 0.981-5.248 0.896-5.248 0.853-5.291 0.768-5.291 0.725-5.333 0.64-5.333 0.597-5.376 0.512-5.376 0.427-5.419 0.384-5.419 0.299-5.461 0.256-5.461 0.171-5.461 0.085-5.504 0.043-5.504-0.043-5.504-0.085-5.504-0.171-5.461-0.256-5.461-0.299-5.461-0.384-5.419-0.427-5.419-0.512-5.376-0.597-5.376-0.64-5.333-0.725-5.333-0.768-5.291-0.853-5.291-0.896-5.248-0.981-5.248-1.024-5.205-1.109-5.205-1.152-5.163-1.237-5.163-1.28-5.12-1.365-5.12-1.408-5.077-1.451-5.035-1.536-5.035-1.579-4.992-1.664-4.949-1.707-4.949-1.749-4.907-1.835-4.907-1.877-4.864-1.92-4.821-2.005-4.779-2.048-4.779-2.091-4.736-2.176-4.693-2.219-4.693-2.261-4.651-2.347-4.608-2.389-4.565-2.432-4.565-2.475-4.523-2.56-4.48-2.603-4.437-2.645-4.437-2.688-4.395-2.731-4.352-2.816-4.309-2.859-4.267-2.901-4.224-2.944-4.181-2.987-4.181-3.029-4.139-3.115-4.096-3.157-4.053-3.2-4.011-3.243-3.968-3.285-3.925-3.328-3.883-3.371-3.84-3.413-3.797-3.456-3.755-3.499-3.712-3.541-3.669-3.584-3.627-3.627-3.584-3.669-3.541-3.712-3.499-3.755-3.456-3.797-3.413-3.84-3.371-3.883-3.328-3.925-3.285-3.968-3.243-4.011-3.2-4.053-3.157-4.096-3.115-4.139-3.029-4.181-2.987-4.181-2.944-4.224-2.901-4.267-2.859-4.309-2.816-4.352-2.731-4.395-2.688-4.437-2.645-4.437-2.603-4.48-2.56-4.523-2.475-4.565-2.432-4.565-2.389-4.608-2.347-4.651-2.261-4.693-2.219-4.693-2.176-4.736-2.091-4.779-2.048-4.779-2.005-4.821-1.92-4.864-1.877-4.907-1.835-4.907-1.749-4.949-1.707-4.949-1.664-4.992-1.579-5.035-1.536-5.035-1.451-5.077-1.408-5.12-1.365-5.12-1.28-5.163-1.237-5.163-1.152-5.205-1.109-5.205-1.024-5.248-0.981-5.248-0.896-5.291-0.853-5.291-0.768-5.333-0.725-5.333-0.64-5.376-0.597-5.376-0.512-5.419-0.427-5.419-0.384-5.461-0.299-5.461-0.256-5.461-0.171-5.504-0.085-5.504-0.043-5.504 0.043-5.504 0.085-5.461 0.171-5.461 0.256-5.461 0.299-5.419 0.384-5.419 0.427-5.376 0.512-5.376 0.597-5.333 0.64-5.333 0.725-5.291 0.768-5.291 0.853-5.248 0.896-5.248 0.981-5.205 1.024-5.205 1.109-5.163 1.152-5.163 1.237-5.12 1.28-5.12 1.365-5.077 1.408-5.035 1.451-5.035 1.536-4.992 1.579-4.949 1.664-4.949 1.707-4.907 1.749-4.907 1.835-4.864 1.877-4.821 1.92-4.779 2.005-4.779 2.048-4.736 2.091-4.693 2.176-4.693 2.219-4.651 2.261-4.608 2.347-4.565 2.389-4.565 2.432-4.523 2.475-4.48 2.56-4.437 2.603-4.437 2.645-4.395 2.688-4.352 2.731-4.309 2.816-4.267 2.859-4.224 2.901-4.181 2.944-4.181 2.987-4.139 3.029-4.096 3.115-4.053 3.157-4.011 3.2-3.968 3.243-3.925 3.285-3.883 3.328-3.84 3.371-3.797 3.413-3.755 3.456-3.712 3.499-3.669 3.541-3.627 3.584-3.584 3.627-3.541 3.669-3.499 3.712-3.456 3.755-3.413 3.797-3.371 3.84-3.328 3.883-3.285 3.925-3.243 3.968-3.2 4.011-3.157 4.053-3.115 4.096-3.029 4.139-2.987 4.181-2.944 4.181-2.901 4.224-2.859 4.267-2.816 4.309-2.731 4.352-2.688 4.395-2.645 4.437-2.603 4.437-2.56 4.48-2.475 4.523-2.432 4.565-2.389 4.565-2.347 4.608-2.261 4.651-2.219 4.693-2.176 4.693-2.091 4.736-2.048 4.779-2.005 4.779-1.92 4.821-1.877 4.864-1.835 4.907-1.749 4.907-1.707 4.949-1.664 4.949-1.579 4.992-1.536 5.035-1.451 5.035-1.408 5.077-1.365 5.12-1.28 5.12-1.237 5.163-1.152 5.163-1.109 5.205-1.024 5.205-0.981 5.248-0.896 5.248-0.853 5.291-0.768 5.291-0.725 5.333-0.64 5.333-0.597 5.376-0.512 5.376-0.427 5.419-0.384 5.419-0.299 5.461-0.256 5.461-0.171 5.461-0.085 5.504-0.043 5.504 0.043 5.504 0.085 5.504 0.171 5.461 0.256 5.461 0.299 5.461 0.384 5.419 0.427 5.419 0.512 5.376 0.597 5.376 0.64 5.333 0.725 5.333 0.768 5.291 0.853 5.291 0.896 5.248 0.981 5.248 1.024 5.205 1.109 5.205 1.152 5.163 1.237 5.163 1.28 5.12 1.365 5.12 1.408 5.077 1.451 5.035 1.536 5.035 1.579 4.992 1.664 4.949 1.707 4.949 1.749 4.907 1.835 4.907 1.877 4.864 1.92 4.821 2.005 4.779 2.048 4.779 2.091 4.736 2.176 4.693 2.219 4.693 2.261 4.651 2.347 4.608 2.389 4.565 2.432 4.565 2.475 4.523 2.56 4.48 2.603 4.437 2.645 4.437 2.688 4.395 2.731 4.352 2.816 4.309 2.859 4.267 2.901 4.224 2.944 4.181 2.987 4.181 3.029 4.139 3.115 4.096 3.157 4.053 3.2 4.011 3.243 3.968 3.285 3.925 3.328 3.883 3.371 3.84 3.413 3.797 3.456 3.755 3.499 3.712 3.541 3.669 3.584 3.627 3.627 3.584 3.669 3.541 3.712 3.499 3.755 3.456 3.797 3.413 3.84 3.371 3.883 3.328 3.925 3.285 3.968 3.243 4.011 3.2 4.053 3.157 4.096 3.115 4.139 3.029 4.181 2.987 4.181 2.944 4.224 2.901 4.267 2.859 4.309 2.816 4.352 2.731 4.395 2.688 4.437 2.645 4.437 2.603 4.48 2.56 4.523 2.475 4.565 2.432 4.565 2.389 4.608 2.347 4.651 2.261 4.693 2.219 4.693 2.176 4.736 2.091 4.779 2.048 4.779 2.005 4.821 1.92 4.864 1.877 4.907 1.835 4.907 1.749 4.949 1.707 4.949 1.664 4.992 1.579 5.035 1.536 5.035 1.451 5.077 1.408 5.12 1.365 5.12 1.28 5.163 1.237 5.163 1.152 5.205 1.109 5.205 1.024 5.248 0.981 5.248 0.896 5.291 0.853 5.291 0.768 5.333 0.725 5.333 0.64 5.376 0.597 5.376 0.512 5.419 0.427 5.419 0.384 5.461 0.299 5.461 0.256 5.461 0.171 5.504 0.085 5.504 0.043 5.504-0.043zM507.008 831.957l-4.949-0.085-4.949-0.171-4.907-0.213-4.907-0.299-4.907-0.341-4.864-0.384-4.864-0.469-4.821-0.512-4.821-0.597-4.779-0.64-4.779-0.683-4.736-0.768-4.736-0.811-4.736-0.853-4.693-0.939-4.693-0.981-4.651-1.024-4.651-1.109-4.608-1.152-4.565-1.195-4.565-1.28-4.523-1.323-4.523-1.365-4.48-1.408-4.48-1.493-4.437-1.536-4.437-1.579-4.395-1.621-4.352-1.707-4.352-1.749-4.309-1.792-4.309-1.835-4.267-1.877-4.224-1.963-4.224-2.005-4.181-2.048-4.139-2.091-4.139-2.133-4.096-2.176-4.053-2.219-4.053-2.304-4.011-2.347-3.968-2.389-3.925-2.432-3.925-2.475-3.883-2.517-3.84-2.56-3.797-2.603-3.797-2.645-3.755-2.688-3.712-2.731-3.669-2.773-3.627-2.816-3.627-2.859-3.584-2.901-3.541-2.944-3.499-2.987-3.456-3.029-3.413-3.072-3.413-3.115-3.371-3.157-3.328-3.2-3.285-3.243-3.243-3.285-3.2-3.328-3.157-3.371-3.115-3.413-3.072-3.413-3.029-3.456-2.987-3.499-2.944-3.541-2.901-3.584-2.859-3.627-2.816-3.627-2.773-3.669-2.731-3.712-2.688-3.755-2.645-3.797-2.603-3.797-2.56-3.84-2.517-3.883-2.475-3.925-2.432-3.925-2.389-3.968-2.347-4.011-2.304-4.053-2.219-4.053-2.176-4.096-2.133-4.139-2.091-4.139-2.048-4.181-2.005-4.224-1.963-4.224-1.877-4.267-1.835-4.309-1.792-4.309-1.749-4.352-1.707-4.352-1.621-4.395-1.579-4.437-1.536-4.437-1.493-4.48-1.408-4.48-1.365-4.523-1.323-4.523-1.28-4.565-1.195-4.565-1.152-4.608-1.109-4.651-1.024-4.651-0.981-4.693-0.939-4.693-0.853-4.736-0.811-4.736-0.768-4.736-0.683-4.779-0.64-4.779-0.597-4.821-0.512-4.821-0.469-4.864-0.384-4.864-0.341-4.907-0.299-4.907-0.213-4.907-0.171-4.949-0.085-4.949-0.043-4.992 0.043-4.992 0.085-4.949 0.171-4.949 0.213-4.907 0.299-4.907 0.341-4.907 0.384-4.864 0.469-4.864 0.512-4.821 0.597-4.821 0.64-4.779 0.683-4.779 0.768-4.736 0.811-4.736 0.853-4.736 0.939-4.693 0.981-4.693 1.024-4.651 1.109-4.651 1.152-4.608 1.195-4.565 1.28-4.565 1.323-4.523 1.365-4.523 1.408-4.48 1.493-4.48 1.536-4.437 1.579-4.437 1.621-4.395 1.707-4.352 1.749-4.352 1.792-4.309 1.835-4.309 1.877-4.267 1.963-4.224 2.005-4.224 2.048-4.181 2.091-4.139 2.133-4.139 2.176-4.096 2.219-4.053 2.304-4.053 2.347-4.011 2.389-3.968 2.432-3.925 2.475-3.925 2.517-3.883 2.56-3.84 2.603-3.797 2.645-3.797 2.688-3.755 2.731-3.712 2.773-3.669 2.816-3.627 2.859-3.627 2.901-3.584 2.944-3.541 2.987-3.499 3.029-3.456 3.072-3.413 3.115-3.413 3.157-3.371 3.2-3.328 3.243-3.285 3.285-3.243 3.328-3.2 3.371-3.157 3.413-3.115 3.413-3.072 3.456-3.029 3.499-2.987 3.541-2.944 3.584-2.901 3.627-2.859 3.627-2.816 3.669-2.773 3.712-2.731 3.755-2.688 3.797-2.645 3.797-2.603 3.84-2.56 3.883-2.517 3.925-2.475 3.925-2.432 3.968-2.389 4.011-2.347 4.053-2.304 4.053-2.219 4.096-2.176 4.139-2.133 4.139-2.091 4.181-2.048 4.224-2.005 4.224-1.963 4.267-1.877 4.309-1.835 4.309-1.792 4.352-1.749 4.352-1.707 4.395-1.621 4.437-1.579 4.437-1.536 4.48-1.493 4.48-1.408 4.523-1.365 4.523-1.323 4.565-1.28 4.565-1.195 4.608-1.152 4.651-1.109 4.651-1.024 4.693-0.981 4.693-0.939 4.736-0.853 4.736-0.811 4.736-0.768 4.779-0.683 4.779-0.64 4.821-0.597 4.821-0.512 4.864-0.469 4.864-0.384 4.907-0.341 4.907-0.299 4.907-0.213 4.949-0.171 4.949-0.085 4.992-0.043 4.992 0.043 4.949 0.085 4.949 0.171 4.907 0.213 4.907 0.299 4.907 0.341 4.864 0.384 4.864 0.469 4.821 0.512 4.821 0.597 4.779 0.64 4.779 0.683 4.736 0.768 4.736 0.811 4.736 0.853 4.693 0.939 4.693 0.981 4.651 1.024 4.651 1.109 4.608 1.152 4.565 1.195 4.565 1.28 4.523 1.323 4.523 1.365 4.48 1.408 4.48 1.493 4.437 1.536 4.437 1.579 4.395 1.621 4.352 1.707 4.352 1.749 4.309 1.792 4.309 1.835 4.267 1.877 4.224 1.963 4.224 2.005 4.181 2.048 4.139 2.091 4.139 2.133 4.096 2.176 4.053 2.219 4.053 2.304 4.011 2.347 3.968 2.389 3.925 2.432 3.925 2.475 3.883 2.517 3.84 2.56 3.797 2.603 3.797 2.645 3.755 2.688 3.712 2.731 3.669 2.773 3.627 2.816 3.627 2.859 3.584 2.901 3.541 2.944 3.499 2.987 3.456 3.029 3.413 3.072 3.413 3.115 3.371 3.157 3.328 3.2 3.285 3.243 3.243 3.285 3.2 3.328 3.157 3.371 3.115 3.413 3.072 3.413 3.029 3.456 2.987 3.499 2.944 3.541 2.901 3.584 2.859 3.627 2.816 3.627 2.773 3.669 2.731 3.712 2.688 3.755 2.645 3.797 2.603 3.797 2.56 3.84 2.517 3.883 2.475 3.925 2.432 3.925 2.389 3.968 2.347 4.011 2.304 4.053 2.219 4.053 2.176 4.096 2.133 4.139 2.091 4.139 2.048 4.181 2.005 4.224 1.963 4.224 1.877 4.267 1.835 4.309 1.792 4.309 1.749 4.352 1.707 4.352 1.621 4.395 1.579 4.437 1.536 4.437 1.493 4.48 1.408 4.48 1.365 4.523 1.323 4.523 1.28 4.565 1.195 4.565 1.152 4.608 1.109 4.651 1.024 4.651 0.981 4.693 0.939 4.693 0.853 4.736 0.811 4.736 0.768 4.736 0.683 4.779 0.64 4.779 0.597 4.821 0.512 4.821 0.469 4.864 0.384 4.864 0.341 4.907 0.299 4.907 0.213 4.907 0.171 4.949 0.085 4.949 0.043 4.992-0.043 4.992-0.085 4.949-0.171 4.949-0.213 4.907-0.299 4.907-0.341 4.907-0.384 4.864-0.469 4.864-0.512 4.821-0.597 4.821-0.64 4.779-0.683 4.779-0.768 4.736-0.811 4.736-0.853 4.736-0.939 4.693-0.981 4.693-1.024 4.651-1.109 4.651-1.152 4.608-1.195 4.565-1.28 4.565-1.323 4.523-1.365 4.523-1.408 4.48-1.493 4.48-1.536 4.437-1.579 4.437-1.621 4.395-1.707 4.352-1.749 4.352-1.792 4.309-1.835 4.309-1.877 4.267-1.963 4.224-2.005 4.224-2.048 4.181-2.091 4.139-2.133 4.139-2.176 4.096-2.219 4.053-2.304 4.053-2.347 4.011-2.389 3.968-2.432 3.925-2.475 3.925-2.517 3.883-2.56 3.84-2.603 3.797-2.645 3.797-2.688 3.755-2.731 3.712-2.773 3.669-2.816 3.627-2.859 3.627-2.901 3.584-2.944 3.541-2.987 3.499-3.029 3.456-3.072 3.413-3.115 3.413-3.157 3.371-3.2 3.328-3.243 3.285-3.285 3.243-3.328 3.2-3.371 3.157-3.413 3.115-3.413 3.072-3.456 3.029-3.499 2.987-3.541 2.944-3.584 2.901-3.627 2.859-3.627 2.816-3.669 2.773-3.712 2.731-3.755 2.688-3.797 2.645-3.797 2.603-3.84 2.56-3.883 2.517-3.925 2.475-3.925 2.432-3.968 2.389-4.011 2.347-4.053 2.304-4.053 2.219-4.096 2.176-4.139 2.133-4.139 2.091-4.181 2.048-4.224 2.005-4.224 1.963-4.267 1.877-4.309 1.835-4.309 1.792-4.352 1.749-4.352 1.707-4.395 1.621-4.437 1.579-4.437 1.536-4.48 1.493-4.48 1.408-4.523 1.365-4.523 1.323-4.565 1.28-4.565 1.195-4.608 1.152-4.651 1.109-4.651 1.024-4.693 0.981-4.693 0.939-4.736 0.853-4.736 0.811-4.736 0.768-4.779 0.683-4.779 0.64-4.821 0.597-4.821 0.512-4.864 0.469-4.864 0.384-4.907 0.341-4.907 0.299-4.907 0.213-4.949 0.171-4.949 0.085-4.992 0.043-4.992-0.043zM520.832 222.379c-19.285 0-34.859 15.403-34.859 34.645 0 19.072 15.573 34.475 34.859 34.475s34.859-15.403 34.859-34.475c0-19.285-15.573-34.645-34.859-34.645zM590.165 458.88c-46.763-46.165-45.525-56.192-47.787-109.312h-38.955c2.261 58.453 15.403 89.643 61.739 132.309 22.571 21.12 39.808 46.549 39.808 78.165 0 48.427-39.808 81.835-87.381 81.835-66.475 0-99.499-33.621-98.261-95.189h-38.571c0.597 86.144 50.048 127.403 138.667 127.403 67.712 0 123.904-41.856 123.904-112 0-44.928-21.931-74.24-53.12-103.168z" />
<glyph unicode="&#xe929;" glyph-name="help" d="M512 874.667c-235.691 0-426.667-190.976-426.667-426.667s190.976-426.667 426.667-426.667 426.667 190.976 426.667 426.667-190.976 426.667-426.667 426.667zM520.832 222.379c-19.285 0-34.859 15.403-34.859 34.645 0 19.072 15.573 34.475 34.859 34.475s34.859-15.403 34.859-34.475c0-19.285-15.573-34.645-34.859-34.645zM590.165 458.88c-46.763-46.165-45.525-56.192-47.787-109.312h-38.955c2.261 58.453 15.403 89.643 61.739 132.309 22.571 21.12 39.808 46.549 39.808 78.165 0 48.427-39.808 81.835-87.381 81.835-66.475 0-99.499-33.621-98.261-95.189h-38.571c0.597 86.144 50.048 127.403 138.667 127.403 67.712 0 123.904-41.856 123.904-112 0-44.928-21.931-74.24-53.12-103.168z" />
<glyph unicode="&#xe92a;" glyph-name="injection" d="M405.333 640h149.333v-42.667h-149.333v-42.667h149.333v-42.667h-149.333v-42.667h149.333v-42.667h-149.333v-43.136h149.333v-42.667h-149.333v-94.763l106.667-71.125 106.667 71.125v457.899h42.667v-474.667l-5.035-9.429-122.965-82.005v-159.232h-42.667v159.232l-122.965 82.005-5.035 9.429v474.667h42.667v-64zM768 704h-512v42.667h512v-42.667zM682.667 874.667h-64v-128h-42.667v128h-128v-128h-42.667v128h-64v42.667h341.333v-42.667z" />
<glyph unicode="&#xe92b;" glyph-name="iphone, mobile" d="M688.597 917.333h-352.981c-32.043 0-58.197-26.155-58.197-58.411v-822.059c0-32.043 26.155-58.197 58.197-58.197h352.725c32.043 0 58.197 26.155 58.197 58.197v822.059c0.256 32.256-25.899 58.411-57.941 58.411zM473.003 829.568c0 5.12 4.139 9.515 9.515 9.515h59.392c5.12 0 9.515-4.139 9.515-9.515v-0.725c0-5.12-4.139-9.515-9.515-9.515h-59.392c-5.12 0-9.515 4.139-9.515 9.515v0.725zM443.648 839.083c5.376 0 9.771-4.395 9.771-9.771s-4.395-9.771-9.771-9.771-9.771 4.395-9.771 9.771 4.395 9.771 9.771 9.771zM512.085 17.493c-21.76 0-39.339 17.621-39.339 39.339 0 21.76 17.621 39.339 39.339 39.339 21.76 0 39.339-17.621 39.339-39.339 0-21.76-17.835-39.339-39.339-39.339zM707.627 135.083h-391.125v625.792h391.125v-625.792z" />
<glyph unicode="&#xe92c;" glyph-name="list-outline" d="M896 64h-768v768h768v-768zM170.667 789.333v-682.667h682.667v682.667h-682.667zM256 661.333h42.667v-42.667h-42.667zM256 320h42.667v-42.667h-42.667zM256 490.667h42.667v-42.667h-42.667zM384 661.333h384v-42.667h-384zM384 320h384v-42.667h-384zM384 490.667h384v-42.667h-384z" />
<glyph unicode="&#xe92d;" glyph-name="list" d="M896 832v-768h-768v768h768zM298.667 277.333v42.667h-42.667v-42.667h42.667zM768 277.333v42.667h-384v-42.667h384zM298.667 448v42.667h-42.667v-42.667h42.667zM768 448v42.667h-384v-42.667h384zM298.667 618.667v42.667h-42.667v-42.667h42.667zM768 618.667v42.667h-384v-42.667h384z" />
<glyph unicode="&#xe92e;" glyph-name="medications" d="M527.232 191.403l-75.563-75.264c-5.419-5.419-11.051-10.453-16.939-15.061l-0.213-0.171-1.237-0.981-1.408-1.067-0.299-0.213-0.213-0.171-0.299-0.256-0.597-0.427-0.683-0.469-0.341-0.299-0.213-0.128-0.213-0.171-1.408-1.024-0.128-0.085-0.555-0.384-0.811-0.555-0.213-0.171-0.384-0.256-0.555-0.384-0.299-0.213-0.384-0.299-3.968-2.645-0.085-0.043c-7.979-5.163-16.213-9.643-24.704-13.525l-0.213-0.085-0.085-0.043-0.597-0.256-0.683-0.341-0.256-0.085-0.384-0.171-0.811-0.384-0.341-0.128-0.085-0.043-1.024-0.427-0.725-0.299-0.597-0.256-0.939-0.384-0.299-0.128-0.341-0.128-0.427-0.171-0.597-0.256-0.683-0.256-0.427-0.171-0.256-0.085-0.299-0.128-1.621-0.64-2.176-0.811c-22.656-8.235-46.549-12.032-70.357-11.477l-2.176 0.043-0.043 0.043h-0.981l-1.152 0.085h-0.256l-1.109 0.043-0.811 0.043h-0.128l-0.256 0.043-1.195 0.085h-0.555l-0.171 0.043h-0.384l-1.237 0.128h-0.512l-0.555 0.043-1.237 0.128-0.256 0.043h-0.128l-0.683 0.043-1.237 0.128-0.128 0.043h-0.043c-12.16 1.237-24.235 3.669-36.053 7.211v0.043l-1.024 0.299-0.939 0.299-0.256 0.085-1.024 0.299-0.725 0.256-0.171 0.043-0.256 0.085-1.067 0.341-0.555 0.213-0.171 0.043-0.427 0.171-1.024 0.341-0.427 0.128-0.213 0.085-0.597 0.213-0.981 0.341-0.256 0.128-0.171 0.043-0.853 0.299-0.896 0.341-0.171 0.085-0.128 0.043-1.152 0.427-0.725 0.299h-0.085l-2.091 0.853-1.963 0.811-0.213 0.085-0.555 0.256-0.853 0.341-0.341 0.171-0.384 0.128-0.555 0.256-0.939 0.427-0.64 0.299-0.469 0.171-0.213 0.128-0.469 0.213c-11.989 5.461-23.552 12.245-34.432 20.309l-0.128 0.128-1.067 0.768-0.384 0.299-0.043 0.043-1.493 1.109-0.939 0.768-0.597 0.469-0.085 0.085-0.256 0.171-1.195 0.939-0.341 0.299-0.384 0.299-0.341 0.299-0.427 0.341-0.683 0.597-0.427 0.299-0.171 0.171-0.213 0.171-1.451 1.237-1.493 1.323-0.213 0.171-0.128 0.128-0.427 0.341-0.725 0.683-0.427 0.341-0.256 0.256-0.341 0.299-0.427 0.427-0.683 0.597-0.384 0.341-0.384 0.384-1.323 1.195-0.085 0.128-1.664 1.579-1.152 1.152-0.085 0.043-0.128 0.128-0.512 0.555-2.133 2.133-0.811 0.853-0.512 0.555-0.768 0.811-0.597 0.64-0.341 0.341-0.683 0.768-0.341 0.341-0.128 0.171-0.512 0.555-0.555 0.597-0.128 0.171-0.171 0.171-12.203 15.189v0.043l-1.152 1.536v0.043l-0.043 0.085-3.285 4.736-0.043 0.085-0.171 0.256-0.555 0.853-0.768 1.152-0.341 0.597-0.299 0.427-0.299 0.512-0.341 0.512-0.427 0.683-0.469 0.811-0.341 0.512-0.128 0.171-1.109 1.877-1.067 1.877-0.128 0.171-0.256 0.427-0.427 0.811-0.256 0.469-0.213 0.341-0.213 0.427-0.256 0.427-0.384 0.683-0.299 0.555-0.213 0.427-0.469 0.853-0.427 0.811-0.64 1.28-0.256 0.427v0.043l-0.171 0.341-0.512 0.981-0.171 0.341-0.043 0.128-0.341 0.64-0.384 0.811-0.043 0.128-0.085 0.128c-4.437 9.131-8.107 18.475-11.008 28.032v0.085l-0.043 0.128-0.512 1.664v0.043l-0.043 0.128-1.28 4.693-0.213 0.683-0.043 0.213-0.128 0.427-0.128 0.597-0.171 0.597-0.256 1.024-0.085 0.384-0.085 0.427-0.213 0.896-0.128 0.555-0.043 0.213-0.469 2.048-0.427 2.005-0.043 0.256-0.085 0.427-0.171 0.725-0.128 0.64-0.085 0.469-0.043 0.341-0.085 0.256-0.171 0.939-0.128 0.725-0.256 1.365-0.043 0.384v0.043l-0.085 0.512-0.171 1.067-0.043 0.085v0.043c-4.779 29.611-2.645 60.16 6.443 88.96v0.043l0.043 0.043 0.299 0.981 0.171 0.555 0.043 0.085 0.128 0.341 0.384 1.237 0.256 0.725 0.341 0.981 0.043 0.213 0.128 0.299 0.171 0.469 0.213 0.64 0.256 0.683 0.213 0.64 0.128 0.299 0.597 1.664 0.597 1.493 0.128 0.427 0.128 0.256 0.128 0.299 0.213 0.555 0.341 0.939 0.171 0.341 0.043 0.128 0.725 1.792 0.128 0.256 0.427 1.024 0.256 0.555 0.213 0.597 0.171 0.299v0.043l0.555 1.28 0.256 0.512 0.341 0.811 0.171 0.384 0.128 0.256 0.299 0.683 0.256 0.512v0.043l0.128 0.213 0.64 1.365 0.597 1.195 0.043 0.128 0.384 0.768 0.341 0.725 4.565 8.576 0.043 0.043v0.043l2.304 3.968 0.128 0.213 0.128 0.171 2.176 3.541 0.256 0.427 0.213 0.299 0.341 0.555 0.213 0.384 0.128 0.128 0.768 1.195 0.213 0.299 0.299 0.469 1.195 1.792 1.152 1.664 0.043 0.043 0.128 0.171 0.768 1.109 0.299 0.469 0.341 0.427 1.237 1.749 1.109 1.451c5.419 7.253 11.435 14.208 18.005 20.779l0.171 0.171c129.365 132.565 261.547 262.357 392.917 392.917 9.344 8.96 19.243 17.195 30.080 24.277 19.584 12.757 41.472 21.845 64.299 26.752 10.539 2.261 21.163 3.499 31.915 4.096l13.739 0.128c7.68-0.299 15.275-0.853 22.869-2.005 18.347-2.688 36.267-8.021 53.077-15.829 18.773-8.747 36.096-20.565 51.115-34.859 15.232-14.464 28.032-31.36 37.803-49.92 25.301-48.171 28.8-106.283 9.6-157.227-6.144-16.213-14.464-31.616-24.747-45.611-4.821-6.571-10.112-12.715-15.659-18.688-24.576-25.173-49.237-50.261-74.027-75.264 7.595-2.731 14.976-5.931 22.144-9.643 35.755-18.304 65.323-47.872 83.627-83.584 8.576-16.811 14.677-34.859 18.005-53.419 3.712-20.821 3.968-42.283 0.768-63.189-2.859-18.688-8.491-36.949-16.725-53.973-10.027-20.821-23.851-39.808-40.619-55.765s-36.395-28.928-57.728-37.931c-23.552-9.984-49.109-15.104-74.709-15.104s-51.115 5.12-74.709 15.104c-21.333 9.003-40.96 21.973-57.728 37.931-16.725 15.957-30.549 34.944-40.619 55.765-2.901 6.059-5.504 12.288-7.765 18.603zM827.648 345.387l-208.981-208.981c9.643-7.211 20.181-13.312 31.317-18.005 18.347-7.765 38.187-11.733 58.069-11.733 19.925 0 39.765 3.968 58.069 11.733 16.597 7.040 31.915 17.109 44.928 29.525 13.056 12.416 23.808 27.179 31.616 43.392 6.4 13.227 10.795 27.392 13.013 41.899 2.475 16.299 2.261 33.024-0.597 49.237-2.603 14.421-7.339 28.416-13.995 41.472-3.883 7.509-8.363 14.72-13.44 21.461zM797.483 375.552c-6.784 5.077-13.952 9.6-21.504 13.44-14.123 7.253-29.44 12.203-45.141 14.635l-18.901 1.664h-7.723l-18.901-1.664c-15.744-2.432-31.019-7.381-45.141-14.635-27.819-14.251-50.859-37.248-65.109-65.067-6.699-13.056-11.392-27.051-13.995-41.472-2.901-16.213-3.115-32.939-0.597-49.237 2.219-14.507 6.613-28.672 12.971-41.899 4.224-8.704 9.259-16.981 15.061-24.704l208.981 208.939zM724.224 447.275c30.805 31.275 61.525 62.592 92.16 93.995 4.309 4.651 8.448 9.429 12.203 14.549 7.979 10.88 14.464 22.827 19.2 35.413 14.933 39.595 12.245 84.864-7.467 122.325-7.552 14.464-17.579 27.605-29.397 38.827-11.648 11.093-25.131 20.309-39.723 27.093-18.603 8.661-38.613 13.056-59.051 13.867h-7.168c-8.363-0.256-16.683-1.024-24.917-2.56-18.987-3.627-37.248-10.923-53.419-21.504-8.533-5.547-16.299-11.989-23.595-19.029-65.749-65.365-131.712-130.475-197.419-195.883l164.693-164.693c14.635 15.019 31.659 27.733 50.347 37.291 18.219 9.344 37.931 15.744 58.155 18.816 8.064 1.237 16.171 1.835 24.277 2.176h9.899l11.221-0.683z" />
<glyph unicode="&#xe92f;" glyph-name="minus-empty" d="M249.429 464.427h525.141v-34.859h-525.141z" />
<glyph unicode="&#xe930;" glyph-name="minus-outline" d="M517.504 874.624l5.504-0.085 5.461-0.171 5.461-0.256 5.461-0.299 5.419-0.384 5.419-0.427 5.376-0.512 5.376-0.597 5.333-0.64 5.333-0.725 5.291-0.768 5.291-0.853 5.248-0.896 5.248-0.981 5.205-1.024 5.205-1.109 5.163-1.152 5.163-1.237 5.12-1.28 5.12-1.365 5.077-1.408 5.035-1.451 5.035-1.536 4.992-1.579 4.949-1.664 4.949-1.707 4.907-1.749 4.907-1.835 4.864-1.877 4.821-1.92 4.779-2.005 4.779-2.048 4.736-2.091 4.693-2.176 4.693-2.219 4.651-2.261 4.608-2.347 4.565-2.389 4.565-2.432 4.523-2.475 4.48-2.56 4.437-2.603 4.437-2.645 4.395-2.688 4.352-2.731 4.309-2.816 4.267-2.859 4.224-2.901 4.181-2.944 4.181-2.987 4.139-3.029 4.096-3.115 4.053-3.157 4.011-3.2 3.968-3.243 3.925-3.285 3.883-3.328 3.84-3.371 3.797-3.413 3.755-3.456 3.712-3.499 3.669-3.541 3.627-3.584 3.584-3.627 3.541-3.669 3.499-3.712 3.456-3.755 3.413-3.797 3.371-3.84 3.328-3.883 3.285-3.925 3.243-3.968 3.2-4.011 3.157-4.053 3.115-4.096 3.029-4.139 2.987-4.181 2.944-4.181 2.901-4.224 2.859-4.267 2.816-4.309 2.731-4.352 2.688-4.395 2.645-4.437 2.603-4.437 2.56-4.48 2.475-4.523 2.432-4.565 2.389-4.565 2.347-4.608 2.261-4.651 2.219-4.693 2.176-4.693 2.091-4.736 2.048-4.779 2.005-4.779 1.92-4.821 1.877-4.864 1.835-4.907 1.749-4.907 1.707-4.949 1.664-4.949 1.579-4.992 1.536-5.035 1.451-5.035 1.408-5.077 1.365-5.12 1.28-5.12 1.237-5.163 1.152-5.163 1.109-5.205 1.024-5.205 0.981-5.248 0.896-5.248 0.853-5.291 0.768-5.291 0.725-5.333 0.64-5.333 0.597-5.376 0.512-5.376 0.427-5.419 0.384-5.419 0.299-5.461 0.256-5.461 0.171-5.461 0.085-5.504 0.043-5.504-0.043-5.504-0.085-5.504-0.171-5.461-0.256-5.461-0.299-5.461-0.384-5.419-0.427-5.419-0.512-5.376-0.597-5.376-0.64-5.333-0.725-5.333-0.768-5.291-0.853-5.291-0.896-5.248-0.981-5.248-1.024-5.205-1.109-5.205-1.152-5.163-1.237-5.163-1.28-5.12-1.365-5.12-1.408-5.077-1.451-5.035-1.536-5.035-1.579-4.992-1.664-4.949-1.707-4.949-1.749-4.907-1.835-4.907-1.877-4.864-1.92-4.821-2.005-4.779-2.048-4.779-2.091-4.736-2.176-4.693-2.219-4.693-2.261-4.651-2.347-4.608-2.389-4.565-2.432-4.565-2.475-4.523-2.56-4.48-2.603-4.437-2.645-4.437-2.688-4.395-2.731-4.352-2.816-4.309-2.859-4.267-2.901-4.224-2.944-4.181-2.987-4.181-3.029-4.139-3.115-4.096-3.157-4.053-3.2-4.011-3.243-3.968-3.285-3.925-3.328-3.883-3.371-3.84-3.413-3.797-3.456-3.755-3.499-3.712-3.541-3.669-3.584-3.627-3.627-3.584-3.669-3.541-3.712-3.499-3.755-3.456-3.797-3.413-3.84-3.371-3.883-3.328-3.925-3.285-3.968-3.243-4.011-3.2-4.053-3.157-4.096-3.115-4.139-3.029-4.181-2.987-4.181-2.944-4.224-2.901-4.267-2.859-4.309-2.816-4.352-2.731-4.395-2.688-4.437-2.645-4.437-2.603-4.48-2.56-4.523-2.475-4.565-2.432-4.565-2.389-4.608-2.347-4.651-2.261-4.693-2.219-4.693-2.176-4.736-2.091-4.779-2.048-4.779-2.005-4.821-1.92-4.864-1.877-4.907-1.835-4.907-1.749-4.949-1.707-4.949-1.664-4.992-1.579-5.035-1.536-5.035-1.451-5.077-1.408-5.12-1.365-5.12-1.28-5.163-1.237-5.163-1.152-5.205-1.109-5.205-1.024-5.248-0.981-5.248-0.896-5.291-0.853-5.291-0.768-5.333-0.725-5.333-0.64-5.376-0.597-5.376-0.512-5.419-0.427-5.419-0.384-5.461-0.299-5.461-0.256-5.461-0.171-5.504-0.085-5.504-0.043-5.504 0.043-5.504 0.085-5.461 0.171-5.461 0.256-5.461 0.299-5.419 0.384-5.419 0.427-5.376 0.512-5.376 0.597-5.333 0.64-5.333 0.725-5.291 0.768-5.291 0.853-5.248 0.896-5.248 0.981-5.205 1.024-5.205 1.109-5.163 1.152-5.163 1.237-5.12 1.28-5.12 1.365-5.077 1.408-5.035 1.451-5.035 1.536-4.992 1.579-4.949 1.664-4.949 1.707-4.907 1.749-4.907 1.835-4.864 1.877-4.821 1.92-4.779 2.005-4.779 2.048-4.736 2.091-4.693 2.176-4.693 2.219-4.651 2.261-4.608 2.347-4.565 2.389-4.565 2.432-4.523 2.475-4.48 2.56-4.437 2.603-4.437 2.645-4.395 2.688-4.352 2.731-4.309 2.816-4.267 2.859-4.224 2.901-4.181 2.944-4.181 2.987-4.139 3.029-4.096 3.115-4.053 3.157-4.011 3.2-3.968 3.243-3.925 3.285-3.883 3.328-3.84 3.371-3.797 3.413-3.755 3.456-3.712 3.499-3.669 3.541-3.627 3.584-3.584 3.627-3.541 3.669-3.499 3.712-3.456 3.755-3.413 3.797-3.371 3.84-3.328 3.883-3.285 3.925-3.243 3.968-3.2 4.011-3.157 4.053-3.115 4.096-3.029 4.139-2.987 4.181-2.944 4.181-2.901 4.224-2.859 4.267-2.816 4.309-2.731 4.352-2.688 4.395-2.645 4.437-2.603 4.437-2.56 4.48-2.475 4.523-2.432 4.565-2.389 4.565-2.347 4.608-2.261 4.651-2.219 4.693-2.176 4.693-2.091 4.736-2.048 4.779-2.005 4.779-1.92 4.821-1.877 4.864-1.835 4.907-1.749 4.907-1.707 4.949-1.664 4.949-1.579 4.992-1.536 5.035-1.451 5.035-1.408 5.077-1.365 5.12-1.28 5.12-1.237 5.163-1.152 5.163-1.109 5.205-1.024 5.205-0.981 5.248-0.896 5.248-0.853 5.291-0.768 5.291-0.725 5.333-0.64 5.333-0.597 5.376-0.512 5.376-0.427 5.419-0.384 5.419-0.299 5.461-0.256 5.461-0.171 5.461-0.085 5.504-0.043 5.504 0.043 5.504 0.085 5.504 0.171 5.461 0.256 5.461 0.299 5.461 0.384 5.419 0.427 5.419 0.512 5.376 0.597 5.376 0.64 5.333 0.725 5.333 0.768 5.291 0.853 5.291 0.896 5.248 0.981 5.248 1.024 5.205 1.109 5.205 1.152 5.163 1.237 5.163 1.28 5.12 1.365 5.12 1.408 5.077 1.451 5.035 1.536 5.035 1.579 4.992 1.664 4.949 1.707 4.949 1.749 4.907 1.835 4.907 1.877 4.864 1.92 4.821 2.005 4.779 2.048 4.779 2.091 4.736 2.176 4.693 2.219 4.693 2.261 4.651 2.347 4.608 2.389 4.565 2.432 4.565 2.475 4.523 2.56 4.48 2.603 4.437 2.645 4.437 2.688 4.395 2.731 4.352 2.816 4.309 2.859 4.267 2.901 4.224 2.944 4.181 2.987 4.181 3.029 4.139 3.115 4.096 3.157 4.053 3.2 4.011 3.243 3.968 3.285 3.925 3.328 3.883 3.371 3.84 3.413 3.797 3.456 3.755 3.499 3.712 3.541 3.669 3.584 3.627 3.627 3.584 3.669 3.541 3.712 3.499 3.755 3.456 3.797 3.413 3.84 3.371 3.883 3.328 3.925 3.285 3.968 3.243 4.011 3.2 4.053 3.157 4.096 3.115 4.139 3.029 4.181 2.987 4.181 2.944 4.224 2.901 4.267 2.859 4.309 2.816 4.352 2.731 4.395 2.688 4.437 2.645 4.437 2.603 4.48 2.56 4.523 2.475 4.565 2.432 4.565 2.389 4.608 2.347 4.651 2.261 4.693 2.219 4.693 2.176 4.736 2.091 4.779 2.048 4.779 2.005 4.821 1.92 4.864 1.877 4.907 1.835 4.907 1.749 4.949 1.707 4.949 1.664 4.992 1.579 5.035 1.536 5.035 1.451 5.077 1.408 5.12 1.365 5.12 1.28 5.163 1.237 5.163 1.152 5.205 1.109 5.205 1.024 5.248 0.981 5.248 0.896 5.291 0.853 5.291 0.768 5.333 0.725 5.333 0.64 5.376 0.597 5.376 0.512 5.419 0.427 5.419 0.384 5.461 0.299 5.461 0.256 5.461 0.171 5.504 0.085 5.504 0.043 5.504-0.043zM507.008 831.957l-4.949-0.085-4.949-0.171-4.907-0.213-4.907-0.299-4.907-0.341-4.864-0.384-4.864-0.469-4.821-0.512-4.821-0.597-4.779-0.64-4.779-0.683-4.736-0.768-4.736-0.811-4.736-0.853-4.693-0.939-4.693-0.981-4.651-1.024-4.651-1.109-4.608-1.152-4.565-1.195-4.565-1.28-4.523-1.323-4.523-1.365-4.48-1.408-4.48-1.493-4.437-1.536-4.437-1.579-4.395-1.621-4.352-1.707-4.352-1.749-4.309-1.792-4.309-1.835-4.267-1.877-4.224-1.963-4.224-2.005-4.181-2.048-4.139-2.091-4.139-2.133-4.096-2.176-4.053-2.219-4.053-2.304-4.011-2.347-3.968-2.389-3.925-2.432-3.925-2.475-3.883-2.517-3.84-2.56-3.797-2.603-3.797-2.645-3.755-2.688-3.712-2.731-3.669-2.773-3.627-2.816-3.627-2.859-3.584-2.901-3.541-2.944-3.499-2.987-3.456-3.029-3.413-3.072-3.413-3.115-3.371-3.157-3.328-3.2-3.285-3.243-3.243-3.285-3.2-3.328-3.157-3.371-3.115-3.413-3.072-3.413-3.029-3.456-2.987-3.499-2.944-3.541-2.901-3.584-2.859-3.627-2.816-3.627-2.773-3.669-2.731-3.712-2.688-3.755-2.645-3.797-2.603-3.797-2.56-3.84-2.517-3.883-2.475-3.925-2.432-3.925-2.389-3.968-2.347-4.011-2.304-4.053-2.219-4.053-2.176-4.096-2.133-4.139-2.091-4.139-2.048-4.181-2.005-4.224-1.963-4.224-1.877-4.267-1.835-4.309-1.792-4.309-1.749-4.352-1.707-4.352-1.621-4.395-1.579-4.437-1.536-4.437-1.493-4.48-1.408-4.48-1.365-4.523-1.323-4.523-1.28-4.565-1.195-4.565-1.152-4.608-1.109-4.651-1.024-4.651-0.981-4.693-0.939-4.693-0.853-4.736-0.811-4.736-0.768-4.736-0.683-4.779-0.64-4.779-0.597-4.821-0.512-4.821-0.469-4.864-0.384-4.864-0.341-4.907-0.299-4.907-0.213-4.907-0.171-4.949-0.085-4.949-0.043-4.992 0.043-4.992 0.085-4.949 0.171-4.949 0.213-4.907 0.299-4.907 0.341-4.907 0.384-4.864 0.469-4.864 0.512-4.821 0.597-4.821 0.64-4.779 0.683-4.779 0.768-4.736 0.811-4.736 0.853-4.736 0.939-4.693 0.981-4.693 1.024-4.651 1.109-4.651 1.152-4.608 1.195-4.565 1.28-4.565 1.323-4.523 1.365-4.523 1.408-4.48 1.493-4.48 1.536-4.437 1.579-4.437 1.621-4.395 1.707-4.352 1.749-4.352 1.792-4.309 1.835-4.309 1.877-4.267 1.963-4.224 2.005-4.224 2.048-4.181 2.091-4.139 2.133-4.139 2.176-4.096 2.219-4.053 2.304-4.053 2.347-4.011 2.389-3.968 2.432-3.925 2.475-3.925 2.517-3.883 2.56-3.84 2.603-3.797 2.645-3.797 2.688-3.755 2.731-3.712 2.773-3.669 2.816-3.627 2.859-3.627 2.901-3.584 2.944-3.541 2.987-3.499 3.029-3.456 3.072-3.413 3.115-3.413 3.157-3.371 3.2-3.328 3.243-3.285 3.285-3.243 3.328-3.2 3.371-3.157 3.413-3.115 3.413-3.072 3.456-3.029 3.499-2.987 3.541-2.944 3.584-2.901 3.627-2.859 3.627-2.816 3.669-2.773 3.712-2.731 3.755-2.688 3.797-2.645 3.797-2.603 3.84-2.56 3.883-2.517 3.925-2.475 3.925-2.432 3.968-2.389 4.011-2.347 4.053-2.304 4.053-2.219 4.096-2.176 4.139-2.133 4.139-2.091 4.181-2.048 4.224-2.005 4.224-1.963 4.267-1.877 4.309-1.835 4.309-1.792 4.352-1.749 4.352-1.707 4.395-1.621 4.437-1.579 4.437-1.536 4.48-1.493 4.48-1.408 4.523-1.365 4.523-1.323 4.565-1.28 4.565-1.195 4.608-1.152 4.651-1.109 4.651-1.024 4.693-0.981 4.693-0.939 4.736-0.853 4.736-0.811 4.736-0.768 4.779-0.683 4.779-0.64 4.821-0.597 4.821-0.512 4.864-0.469 4.864-0.384 4.907-0.341 4.907-0.299 4.907-0.213 4.949-0.171 4.949-0.085 4.992-0.043 4.992 0.043 4.949 0.085 4.949 0.171 4.907 0.213 4.907 0.299 4.907 0.341 4.864 0.384 4.864 0.469 4.821 0.512 4.821 0.597 4.779 0.64 4.779 0.683 4.736 0.768 4.736 0.811 4.736 0.853 4.693 0.939 4.693 0.981 4.651 1.024 4.651 1.109 4.608 1.152 4.565 1.195 4.565 1.28 4.523 1.323 4.523 1.365 4.48 1.408 4.48 1.493 4.437 1.536 4.437 1.579 4.395 1.621 4.352 1.707 4.352 1.749 4.309 1.792 4.309 1.835 4.267 1.877 4.224 1.963 4.224 2.005 4.181 2.048 4.139 2.091 4.139 2.133 4.096 2.176 4.053 2.219 4.053 2.304 4.011 2.347 3.968 2.389 3.925 2.432 3.925 2.475 3.883 2.517 3.84 2.56 3.797 2.603 3.797 2.645 3.755 2.688 3.712 2.731 3.669 2.773 3.627 2.816 3.627 2.859 3.584 2.901 3.541 2.944 3.499 2.987 3.456 3.029 3.413 3.072 3.413 3.115 3.371 3.157 3.328 3.2 3.285 3.243 3.243 3.285 3.2 3.328 3.157 3.371 3.115 3.413 3.072 3.413 3.029 3.456 2.987 3.499 2.944 3.541 2.901 3.584 2.859 3.627 2.816 3.627 2.773 3.669 2.731 3.712 2.688 3.755 2.645 3.797 2.603 3.797 2.56 3.84 2.517 3.883 2.475 3.925 2.432 3.925 2.389 3.968 2.347 4.011 2.304 4.053 2.219 4.053 2.176 4.096 2.133 4.139 2.091 4.139 2.048 4.181 2.005 4.224 1.963 4.224 1.877 4.267 1.835 4.309 1.792 4.309 1.749 4.352 1.707 4.352 1.621 4.395 1.579 4.437 1.536 4.437 1.493 4.48 1.408 4.48 1.365 4.523 1.323 4.523 1.28 4.565 1.195 4.565 1.152 4.608 1.109 4.651 1.024 4.651 0.981 4.693 0.939 4.693 0.853 4.736 0.811 4.736 0.768 4.736 0.683 4.779 0.64 4.779 0.597 4.821 0.512 4.821 0.469 4.864 0.384 4.864 0.341 4.907 0.299 4.907 0.213 4.907 0.171 4.949 0.085 4.949 0.043 4.992-0.043 4.992-0.085 4.949-0.171 4.949-0.213 4.907-0.299 4.907-0.341 4.907-0.384 4.864-0.469 4.864-0.512 4.821-0.597 4.821-0.64 4.779-0.683 4.779-0.768 4.736-0.811 4.736-0.853 4.736-0.939 4.693-0.981 4.693-1.024 4.651-1.109 4.651-1.152 4.608-1.195 4.565-1.28 4.565-1.323 4.523-1.365 4.523-1.408 4.48-1.493 4.48-1.536 4.437-1.579 4.437-1.621 4.395-1.707 4.352-1.749 4.352-1.792 4.309-1.835 4.309-1.877 4.267-1.963 4.224-2.005 4.224-2.048 4.181-2.091 4.139-2.133 4.139-2.176 4.096-2.219 4.053-2.304 4.053-2.347 4.011-2.389 3.968-2.432 3.925-2.475 3.925-2.517 3.883-2.56 3.84-2.603 3.797-2.645 3.797-2.688 3.755-2.731 3.712-2.773 3.669-2.816 3.627-2.859 3.627-2.901 3.584-2.944 3.541-2.987 3.499-3.029 3.456-3.072 3.413-3.115 3.413-3.157 3.371-3.2 3.328-3.243 3.285-3.285 3.243-3.328 3.2-3.371 3.157-3.413 3.115-3.413 3.072-3.456 3.029-3.499 2.987-3.541 2.944-3.584 2.901-3.627 2.859-3.627 2.816-3.669 2.773-3.712 2.731-3.755 2.688-3.797 2.645-3.797 2.603-3.84 2.56-3.883 2.517-3.925 2.475-3.925 2.432-3.968 2.389-4.011 2.347-4.053 2.304-4.053 2.219-4.096 2.176-4.139 2.133-4.139 2.091-4.181 2.048-4.224 2.005-4.224 1.963-4.267 1.877-4.309 1.835-4.309 1.792-4.352 1.749-4.352 1.707-4.395 1.621-4.437 1.579-4.437 1.536-4.48 1.493-4.48 1.408-4.523 1.365-4.523 1.323-4.565 1.28-4.565 1.195-4.608 1.152-4.651 1.109-4.651 1.024-4.693 0.981-4.693 0.939-4.736 0.853-4.736 0.811-4.736 0.768-4.779 0.683-4.779 0.64-4.821 0.597-4.821 0.512-4.864 0.469-4.864 0.384-4.907 0.341-4.907 0.299-4.907 0.213-4.949 0.171-4.949 0.085-4.992 0.043-4.992-0.043zM249.429 464.427h525.141v-34.859h-525.141z" />
<glyph unicode="&#xe931;" glyph-name="minus" d="M512 874.667c-235.691 0-426.667-190.976-426.667-426.667s190.976-426.667 426.667-426.667 426.667 190.976 426.667 426.667-190.976 426.667-426.667 426.667zM774.571 429.525h-525.141v34.859h525.141v-34.859z" />
<glyph unicode="&#xe932;" glyph-name="nutrition-outline, carrot-outline" d="M721.365 493.44l0.853 0.085-0.384 0.469-160.896 161.195c-11.947 12.288-29.099 20.821-48.171 20.821-24.235 0-45.355-12.629-56.704-33.152 0 0-14.549-22.571-37.461-59.221l66.731-81.323c6.016-7.723 6.741-16 2.901-19.883l-0.213-0.128c-1.877-1.877-4.139-2.731-6.699-2.731-3.925 0-8.491 2.048-13.312 5.675l-73.6 60.331-171.179-273.749 39.125-47.872c6.016-7.723 6.741-16.171 2.901-20.053l-0.213-0.213c-1.877-1.877-4.139-2.773-6.741-2.773-3.925 0-8.491 2.005-13.269 5.632l-43.221 33.92c-40.917-65.451-71.168-113.493-75.264-117.376-6.144-10.368-8.363-22.827-8.363-36.224 0-36.224 30.080-65.579 66.219-65.579 16.043 0 29.867 6.955 42.667 15.403l235.179 172.544-59.136 72.533c-6.016 7.723-6.699 16.171-2.816 20.053l0.256 0.213c1.877 1.877 4.181 2.731 6.741 2.731 3.925 0 8.491-2.005 13.269-5.632l77.653-64.811c112.469 82.56 217.216 158.251 217.216 158.251 16.085 12.288 25.6 32.213 25.6 53.803 0 17.835-7.296 35.157-19.627 46.976zM695.808 419.627c-5.461-3.968-95.787-69.589-196.437-143.403l-59.051 49.067c-10.752 8.149-21.888 12.288-33.024 12.288-11.221 0-21.717-4.309-29.653-12.117l-0.469-0.469c-16-16.043-15.915-42.709 0.213-63.403l0.427-0.597 37.376-45.781-206.464-151.595c-10.411-6.784-17.28-9.557-23.68-9.557-18.091 0-32.811 14.72-32.811 32.768 0 6.315 1.408 12.416 4.139 17.707 4.907 6.485 13.525 20.267 38.272 60.203l16.683 26.923 13.483-10.923 0.427-0.299c10.752-8.149 21.888-12.288 33.067-12.288 11.307 0 21.931 4.395 29.909 12.373l0.213 0.213c16 16.043 15.915 42.709-0.256 63.403l-0.213 0.299-0.256 0.299-24.235 29.653 139.008 222.251 45.824-37.547c10.795-8.192 21.888-12.331 33.067-12.331 10.155 0 19.755 3.541 27.349 10.027l0.939 0.683 1.792 1.792c16 16 15.872 42.624-0.256 63.275l-0.512 0.597-51.755 62.635 15.189 23.552 10.667 17.408c5.717 10.325 15.915 16.725 28.032 16.725 8.96 0 17.963-4.181 24.747-11.136l9.643-10.112h0.256l141.141-142.123v-0.768l10.624-9.685c5.717-5.504 9.301-13.909 9.301-23.040 0-10.667-4.651-20.779-12.715-27.136zM889.557 736.853l-197.803-114.389 135.893 235.776-28.331 16.384-5.12-8.832-145.195-251.861 34.176-34.261 222.677 128.768-16.384 28.416z" />
<glyph unicode="&#xe933;" glyph-name="nutrition, carrot" d="M723.285 493.909l-0.213 0.085-0.896 1.195-161.835 162.048c-11.989 12.288-29.184 20.864-48.299 20.864-24.277 0-45.483-12.672-56.832-33.152l-37.589-59.989 66.901-81.749c6.059-7.723 6.784-16.213 2.901-20.053l-0.213-0.213c-4.693-4.693-12.075-3.157-20.053 2.901l-73.771 60.373-171.648-274.048 39.211-47.915c6.059-7.723 6.784-16.213 2.901-20.053l-0.213-0.213c-4.693-4.693-12.075-3.157-20.053 2.901l-41.472 33.963-73.6-117.504c-6.144-10.411-10.24-22.869-10.24-36.267 0-36.267 29.227-65.621 65.493-65.621 16.085 0 29.483 6.955 42.325 15.403l235.563 172.715-59.435 72.619c-6.059 7.723-6.784 16.213-2.901 20.053l0.213 0.213c4.693 4.693 12.075 3.157 20.053-2.901l77.867-64.043c112.811 82.645 217.771 159.232 217.771 159.232 16.128 12.288 26.709 31.403 26.709 53.035 0 17.877-6.272 34.347-18.603 46.208zM905.856 688.469l-33.835 56.789-135.851-78.379 100.992 174.805-56.661 32.981-143.573-248.363 58.624-58.624 210.304 120.789z" />
<glyph unicode="&#xe934;" glyph-name="patient-add-outline" d="M853.333-21.333h-682.667v938.667h682.667v-938.667zM810.667 21.333v853.333h-597.333v-846.208c21.803 13.141 43.605 21.419 55.467 25.643 29.227 10.411 70.912 14.251 97.92 20.181 15.403 3.371 37.845 11.776 45.312 20.821 7.467 9.088 2.944 92.715 2.944 92.715s-13.824 21.547-21.291 40.789c-7.467 19.072-15.659 71.424-15.659 71.424s-15.403 0.213-20.821 27.179c-5.675 29.483-14.976 41.259-13.867 63.275 1.152 20.395 11.819 21.504 12.928 21.504 0 0-11.307 31.061-12.672 96.128-1.579 77.269 57.344 153.216 168.405 153.216s170.24-76.16 168.405-153.472c-1.579-65.28-12.672-96.085-12.672-96.085 1.109 0 11.776-1.152 12.885-21.547 1.152-21.973-7.893-34.219-13.824-63.701-5.419-26.965-20.821-26.965-20.821-26.965s-8.192-52.139-15.659-71.168c-7.467-19.029-21.291-40.789-21.291-40.789s-4.565-83.627 2.944-92.715c7.467-8.832 29.909-17.451 45.312-20.864 26.752-5.888 68.693-9.515 97.92-19.925 11.861-4.224 33.664-12.501 55.467-25.643v-7.125zM725.333 682.667h42.667v-21.333h-42.667v-42.667h-21.333v42.667h-42.667v21.333h42.667v42.667h21.333v-42.667zM640 746.667h-256c-23.552 0-42.667 19.115-42.667 42.667s19.115 42.667 42.667 42.667h256.256c23.424-0.171 42.411-19.2 42.411-42.667 0-23.552-19.115-42.667-42.667-42.667z" />
</font>
</defs>
</svg>
